<svg xmlns="http://www.w3.org/2000/svg" viewBox="0 -0.5 80 28" shape-rendering="crispEdges"><path stroke="#EAEAEA" d="M4 0h8m20 0h12m8 0h12m4 0h12M4 1h8m20 0h12m8 0h12m4 0h12M4 2h8m20 0h12m8 0h12m4 0h12M4 3h8m20 0h12m8 0h12m4 0h12M0 4h4m8 0h4m16 0h4m8 0h4m8 0h4m12 0h4M0 5h4m8 0h4m16 0h4m8 0h4m8 0h4m12 0h4M0 6h4m8 0h4m16 0h4m8 0h4m8 0h4m12 0h4M0 7h4m8 0h4m16 0h4m8 0h4m8 0h4m12 0h4M0 8h4m8 0h4m16 0h4m8 0h4m8 0h4m12 0h4M0 9h4m8 0h4m16 0h4m8 0h4m8 0h4m12 0h4M0 10h4m8 0h4m16 0h4m8 0h4m8 0h4m12 0h4M0 11h4m8 0h4m16 0h4m8 0h4m8 0h4m12 0h4M4 12h8m8 0h8m4 0h12m12 0h4m12 0h4M4 13h8m8 0h8m4 0h12m12 0h4m12 0h4M4 14h8m8 0h8m4 0h12m12 0h4m12 0h4M4 15h8m8 0h8m4 0h12m12 0h4m12 0h4M0 16h4m8 0h4m16 0h4m8 0h4m8 0h4m12 0h4M0 17h4m8 0h4m16 0h4m8 0h4m8 0h4m12 0h4M0 18h4m8 0h4m16 0h4m8 0h4m8 0h4m12 0h4M0 19h4m8 0h4m16 0h4m8 0h4m8 0h4m12 0h4M0 20h4m8 0h4m16 0h4m8 0h4m8 0h4m12 0h4M0 21h4m8 0h4m16 0h4m8 0h4m8 0h4m12 0h4M0 22h4m8 0h4m16 0h4m8 0h4m8 0h4m12 0h4M0 23h4m8 0h4m16 0h4m8 0h4m8 0h4m12 0h4M4 24h8m20 0h12m8 0h12m8 0h4M4 25h8m20 0h12m8 0h12m8 0h4M4 26h8m20 0h12m8 0h12m8 0h4M4 27h8m20 0h12m8 0h12m8 0h4"/></svg>