<svg xmlns="http://www.w3.org/2000/svg" viewBox="0 -0.5 80 42" shape-rendering="crispEdges"><path stroke="#191919" d="M0 0h3m1 0h3m1 0h3m1 0h5M1 1h1m2 0h1m3 0h1m1 0h1m1 0h1m1 0h1m1 0h1M1 2h1m2 0h2m2 0h3m1 0h1m1 0h1m1 0h1M1 3h1m2 0h1m3 0h1m1 0h1m1 0h1m1 0h1m1 0h1M1 4h1m2 0h3m1 0h1m1 0h1m1 0h1m1 0h1m1 0h1M4 7h8m20 0h12m8 0h12m4 0h12M4 8h8m20 0h12m8 0h12m4 0h12M4 9h8m20 0h12m8 0h12m4 0h12M4 10h8m20 0h12m8 0h12m4 0h12M0 11h4m8 0h4m16 0h4m8 0h4m8 0h4m12 0h4M0 12h4m8 0h4m16 0h4m8 0h4m8 0h4m12 0h4M0 13h4m8 0h4m16 0h4m8 0h4m8 0h4m12 0h4M0 14h4m8 0h4m16 0h4m8 0h4m8 0h4m12 0h4M0 15h4m8 0h4m16 0h4m8 0h4m8 0h4m12 0h4M0 16h4m8 0h4m16 0h4m8 0h4m8 0h4m12 0h4M0 17h4m8 0h4m16 0h4m8 0h4m8 0h4m12 0h4M0 18h4m8 0h4m16 0h4m8 0h4m8 0h4m12 0h4M4 19h8m8 0h8m4 0h12m12 0h4m12 0h4M4 20h8m8 0h8m4 0h12m12 0h4m12 0h4M4 21h8m8 0h8m4 0h12m12 0h4m12 0h4M4 22h8m8 0h8m4 0h12m12 0h4m12 0h4M0 23h4m8 0h4m16 0h4m8 0h4m8 0h4m12 0h4M0 24h4m8 0h4m16 0h4m8 0h4m8 0h4m12 0h4M0 25h4m8 0h4m16 0h4m8 0h4m8 0h4m12 0h4M0 26h4m8 0h4m16 0h4m8 0h4m8 0h4m12 0h4M0 27h4m8 0h4m16 0h4m8 0h4m8 0h4m12 0h4M0 28h4m8 0h4m16 0h4m8 0h4m8 0h4m12 0h4M0 29h4m8 0h4m16 0h4m8 0h4m8 0h4m12 0h4M0 30h4m8 0h4m16 0h4m8 0h4m8 0h4m12 0h4M4 31h8m20 0h12m8 0h12m8 0h4M4 32h8m20 0h12m8 0h12m8 0h4M4 33h8m20 0h12m8 0h12m8 0h4M4 34h8m20 0h12m8 0h12m8 0h4m-11 3h3m1 0h1m1 0h1m1 0h3m1 0h3m-15 1h1m1 0h1m1 0h1m1 0h1m3 0h1m1 0h1m-13 1h3m1 0h3m3 0h1m1 0h3m-13 1h1m3 0h1m3 0h1m3 0h1m-15 1h3m3 0h1m3 0h1m1 0h3"/></svg>