<?xml version="1.0" encoding="UTF-8" standalone="no"?>
<!-- Created with Inkscape (http://www.inkscape.org/) -->

<svg
   version="1.1"
   id="svg2"
   width="695.41333"
   height="447"
   viewBox="0 0 695.41333 447"
   sodipodi:docname="DoD-Logo-Light-Stacked.eps"
   xmlns:inkscape="http://www.inkscape.org/namespaces/inkscape"
   xmlns:sodipodi="http://sodipodi.sourceforge.net/DTD/sodipodi-0.dtd"
   xmlns="http://www.w3.org/2000/svg"
   xmlns:svg="http://www.w3.org/2000/svg">
  <defs
     id="defs6" />
  <sodipodi:namedview
     id="namedview4"
     pagecolor="#ffffff"
     bordercolor="#000000"
     borderopacity="0.25"
     inkscape:showpageshadow="2"
     inkscape:pageopacity="0.0"
     inkscape:pagecheckerboard="0"
     inkscape:deskcolor="#d1d1d1" />
  <g
     id="g8"
     inkscape:groupmode="layer"
     inkscape:label="ink_ext_XXXXXX"
     transform="matrix(1.3333333,0,0,-1.3333333,0,447)">
    <g
       id="g10"
       transform="scale(0.1)">
      <path
         d="m 3607.95,1455.71 h -42.81 v 103.88 h 42.81 z m -85.67,0 h -42.81 v 103.88 h 42.81 z m -91.9,0 h -42.81 v 103.88 h 42.81 z m -93.2,0 h -42.81 v 103.88 h 42.81 z m -90.6,0 h -42.81 v 103.88 h 42.81 z m -261.26,0 h -45.17 v 103.88 h 45.17 z m -128.29,162.04 30.72,-69.29 v -159.88 h 154.93 v 171.01 h 115.67 v -158.8 h 495.67 l 0.02,215.03 -797.01,1.93"
         style="fill:#ffffff;fill-opacity:1;fill-rule:nonzero;stroke:none"
         id="path12" />
      <path
         d="m 2607.8,3352.53 c -1062.44,0 -1923.722,-570.22 -1923.722,-1273.63 0,-703.4 861.282,-1273.619 1923.722,-1273.619 1062.45,0 1923.73,570.219 1923.73,1273.619 0,703.41 -861.28,1273.63 -1923.73,1273.63 z m 0,-59.97 c 502.21,0 973.54,-128.94 1327.17,-363.07 346.02,-229.09 536.58,-531.17 536.58,-850.59 0,-319.42 -190.56,-621.49 -536.58,-850.58 C 3581.34,994.191 3110.01,865.25 2607.8,865.25 c -502.2,0 -973.53,128.941 -1327.17,363.07 -346.017,229.09 -536.575,531.16 -536.575,850.58 0,319.42 190.558,621.5 536.575,850.59 353.64,234.13 824.97,363.07 1327.17,363.07"
         style="fill:#ffffff;fill-opacity:1;fill-rule:nonzero;stroke:none"
         id="path14" />
      <path
         d="m 2087.67,1425.88 h 39.73 v 101.95 h -39.73 v -101.95"
         style="fill:#abaaa9;fill-opacity:1;fill-rule:nonzero;stroke:none"
         id="path16" />
      <path
         d="m 2266.28,1455.71 h -45.47 v 103.88 h 45.47 z m -263.3,0 h -41.85 v 103.88 h 41.85 z m -89.84,0 h -41.85 v 103.88 h 41.85 z m -89.83,0 h -41.85 v 103.88 h 41.85 z m -91.11,0 h -41.85 v 103.88 h 41.85 z m -92.12,0 h -41.85 v 103.88 h 41.85 z m -89.39,160.11 -0.03,-215.03 h 498.77 v 158.8 h 116.46 v -171.01 h 153.62 v 158.05 l 31.09,71.12 -799.91,-1.93"
         style="fill:#ffffff;fill-opacity:1;fill-rule:nonzero;stroke:none"
         id="path18" />
      <path
         d="m 3081.55,1425.88 h 37.93 v 101.95 h -37.93 v -101.95"
         style="fill:#abaaa9;fill-opacity:1;fill-rule:nonzero;stroke:none"
         id="path20" />
      <path
         d="m 3388.72,2391.63 318.05,144.1 273.88,-63.56 -77.99,-146.19 z m 347.49,-373.29 -662.39,70.5 248.26,268.03 557.59,-71.86 z m -134.45,-244.29 -479.87,-0.14 -87.88,280.31 663.72,-106.36 z m -1439.13,-0.14 71.52,283.79 h 738.62 l 71.53,-283.79 z m -557.47,0.14 -95.97,173.81 663.73,106.36 -87.89,-280.31 z m -277.91,510.96 557.59,71.86 248.27,-268.03 -662.4,-70.5 z m -100.98,187.16 273.88,63.56 318.05,-144.1 -513.93,-65.65 z m 1030.83,241.8 c -0.09,-0.2 -0.17,-0.4 -0.26,-0.61 0.26,0.61 277.05,-136.28 277.05,-136.28 l -630.79,-172 -327.04,148.14 c 227.01,53.58 454.03,107.16 681.04,160.75 z m 346.36,83.4 282.06,-68.12 -282.06,-134.64 -282.06,134.64 z m 660.33,-431.62 -268.32,-263.18 h -784.02 l -268.32,263.18 660.33,196.05 z m 367.07,187.47 -327.04,-148.14 -630.79,172 c 0,0 276.8,136.89 277.05,136.28 -0.08,0.21 -0.17,0.41 -0.25,0.61 227.01,-53.59 454.02,-107.17 681.03,-160.75 z M 2603.46,2819.94 1174.43,2499.6 1551.72,1741.46 H 3655.2 l 377.3,758.14 -1429.04,320.34"
         style="fill:#ffffff;fill-opacity:1;fill-rule:nonzero;stroke:none"
         id="path22" />
      <path
         d="m 2359.89,1355.53 v -36.51 h 487.14 v 36.51 h -487.14"
         style="fill:#ffffff;fill-opacity:1;fill-rule:nonzero;stroke:none"
         id="path24" />
      <path
         d="m 2558.57,1388.58 h 28.69 v 139.25 h -28.69 v -139.25"
         style="fill:#abaaa9;fill-opacity:1;fill-rule:nonzero;stroke:none"
         id="path26" />
      <path
         d="m 2497.47,1388.58 h 28.69 v 139.25 h -28.69 v -139.25"
         style="fill:#abaaa9;fill-opacity:1;fill-rule:nonzero;stroke:none"
         id="path28" />
      <path
         d="m 2438.07,1388.58 h 28.69 v 139.25 h -28.69 v -139.25"
         style="fill:#abaaa9;fill-opacity:1;fill-rule:nonzero;stroke:none"
         id="path30" />
      <path
         d="m 2677.36,1388.58 h 28.7 v 139.25 h -28.7 v -139.25"
         style="fill:#abaaa9;fill-opacity:1;fill-rule:nonzero;stroke:none"
         id="path32" />
      <path
         d="m 2617.96,1388.58 h 28.7 v 139.25 h -28.7 v -139.25"
         style="fill:#abaaa9;fill-opacity:1;fill-rule:nonzero;stroke:none"
         id="path34" />
      <path
         d="m 2799.56,1388.58 h 28.69 v 139.25 h -28.69 v -139.25"
         style="fill:#abaaa9;fill-opacity:1;fill-rule:nonzero;stroke:none"
         id="path36" />
      <path
         d="m 2738.46,1388.58 h 28.7 v 139.25 h -28.7 v -139.25"
         style="fill:#abaaa9;fill-opacity:1;fill-rule:nonzero;stroke:none"
         id="path38" />
      <path
         d="m 2378.67,1388.58 h 28.69 v 139.25 h -28.69 v -139.25"
         style="fill:#abaaa9;fill-opacity:1;fill-rule:nonzero;stroke:none"
         id="path40" />
      <path
         d="m 4059.61,2486.46 -7.25,-14.26 -370.32,-744.1 -8.27,-16.63 h -18.57 -2103.48 -18.57 l -8.27,16.63 -374.89,753.3 -2.57,5.06 -31.41,-45.79 v -166.25 l 406.84,-874.48 v 244.05 l 872.74,1.97 -36.51,-85.01 h 489.73 l -36.51,85.01 871.88,-1.97 v -244.05 l 406.83,874.48 v 166.25 l -31.4,45.79"
         style="fill:#ffffff;fill-opacity:1;fill-rule:nonzero;stroke:none"
         id="path42" />
      <path
         d="m 3614.35,2288.97 -112.44,14.49 -165.01,-212.47 130.87,-13.93 146.58,211.91"
         style="fill:#abaaa9;fill-opacity:1;fill-rule:nonzero;stroke:none"
         id="path44" />
      <path
         d="m 3798.42,2265.24 -111.54,14.38 -137.71,-211.22 129.78,-13.81 119.47,210.65"
         style="fill:#abaaa9;fill-opacity:1;fill-rule:nonzero;stroke:none"
         id="path46" />
      <path
         d="m 1527.84,2054.57 129.78,13.82 -137.71,211.21 -111.54,-14.37 119.47,-210.66"
         style="fill:#abaaa9;fill-opacity:1;fill-rule:nonzero;stroke:none"
         id="path48" />
      <path
         d="m 2255,2017.72 -8.03,-31.88 h 712.99 l -8.04,31.88 H 2255"
         style="fill:#abaaa9;fill-opacity:1;fill-rule:nonzero;stroke:none"
         id="path50" />
      <path
         d="m 2603.39,2776.93 -206.61,-50.43 36.56,-17.46 170.05,42.87 170.14,-42.89 36.57,17.46 -206.71,50.45"
         style="fill:#abaaa9;fill-opacity:1;fill-rule:nonzero;stroke:none"
         id="path52" />
      <path
         d="m 2603.39,2720.65 -127.31,-32.01 43.23,-20.63 84.08,21.31 84.17,-21.34 43.23,20.64 -127.4,32.03"
         style="fill:#abaaa9;fill-opacity:1;fill-rule:nonzero;stroke:none"
         id="path54" />
      <path
         d="m 2603.39,2662.96 -47.92,-12.21 47.99,-22.91 47.95,22.88 -48.02,12.24"
         style="fill:#abaaa9;fill-opacity:1;fill-rule:nonzero;stroke:none"
         id="path56" />
      <path
         d="m 1408.37,2450.68 132.89,33.5 -44.23,20.04 -198.13,-45.98 54.32,-95.78 104.01,13.29 -48.86,74.93"
         style="fill:#abaaa9;fill-opacity:1;fill-rule:nonzero;stroke:none"
         id="path58" />
      <path
         d="m 3853.56,2362.48 54.33,95.79 -198,45.95 -44.28,-20.06 132.8,-33.48 -48.84,-74.92 103.99,-13.28"
         style="fill:#abaaa9;fill-opacity:1;fill-rule:nonzero;stroke:none"
         id="path60" />
      <path
         d="m 2887.35,2649.26 c -13.8,-6.77 -28.29,-13.89 -42.88,-21.06 l 563.75,-142.91 46.86,21.23 -567.73,142.74"
         style="fill:#abaaa9;fill-opacity:1;fill-rule:nonzero;stroke:none"
         id="path62" />
      <path
         d="m 2808.74,2610.64 c -18.35,-9.03 -35.98,-17.72 -51.54,-25.41 l 544.2,-148.33 68.13,30.87 -560.79,142.87"
         style="fill:#abaaa9;fill-opacity:1;fill-rule:nonzero;stroke:none"
         id="path64" />
      <path
         d="m 2966.82,2688.23 c -8.85,-4.34 -21.91,-10.74 -37.63,-18.44 l 569.45,-143.54 46.17,20.91 -577.99,141.07"
         style="fill:#abaaa9;fill-opacity:1;fill-rule:nonzero;stroke:none"
         id="path66" />
      <path
         d="m 2277.96,2669.88 c -15.47,7.6 -28.33,13.9 -37.62,18.44 l -578.27,-141.14 46.16,-20.91 569.73,143.61"
         style="fill:#abaaa9;fill-opacity:1;fill-rule:nonzero;stroke:none"
         id="path68" />
      <path
         d="m 2362.51,2628.26 c -14.67,7.23 -29.11,14.35 -42.78,21.07 l -567.94,-142.79 46.86,-21.23 563.86,142.95"
         style="fill:#abaaa9;fill-opacity:1;fill-rule:nonzero;stroke:none"
         id="path70" />
      <path
         d="m 1837.34,2467.79 68.13,-30.86 544.2,148.33 c -16.35,8.07 -33.81,16.69 -51.5,25.41 l -560.83,-142.88"
         style="fill:#abaaa9;fill-opacity:1;fill-rule:nonzero;stroke:none"
         id="path72" />
      <path
         d="m 3526.37,2421.07 -28.92,-13.1 183.04,-23.38 z"
         style="fill:#abaaa9;fill-opacity:1;fill-rule:nonzero;stroke:none"
         id="path74" />
      <path
         d="m 3574.86,2443.04 124.14,-31.7 19.94,28.83 -96.73,24.32 -47.35,-21.45"
         style="fill:#abaaa9;fill-opacity:1;fill-rule:nonzero;stroke:none"
         id="path76" />
      <path
         d="m 1680.32,2421.18 -154.02,-36.61 183.17,23.4 z"
         style="fill:#abaaa9;fill-opacity:1;fill-rule:nonzero;stroke:none"
         id="path78" />
      <path
         d="m 1632.01,2443.07 -123.82,-32.32 -20.36,29.42 96.83,24.35 47.35,-21.45"
         style="fill:#abaaa9;fill-opacity:1;fill-rule:nonzero;stroke:none"
         id="path80" />
      <path
         d="m 2084.23,1871.58 h -298.29 l -53.28,81.72 -135.11,-21.65 66.78,-117.76 h 401.81 l 9.39,29.93 v 0 l 8.7,27.76"
         style="fill:#abaaa9;fill-opacity:1;fill-rule:nonzero;stroke:none"
         id="path82" />
      <path
         d="m 3542.45,1813.89 66.79,117.78 -55.84,8.95 -79.26,12.7 -53.3,-81.74 h -298.15 l 18.09,-57.69 h 401.67"
         style="fill:#abaaa9;fill-opacity:1;fill-rule:nonzero;stroke:none"
         id="path84" />
      <path
         d="m 2988.75,1871.58 h -770.58 l -14.54,-57.69 h 799.66 l -7.54,29.93 v 0 l -7,27.76"
         style="fill:#abaaa9;fill-opacity:1;fill-rule:nonzero;stroke:none"
         id="path86" />
      <path
         d="m 2120.05,1985.84 9.75,31.1 -314.36,-50.37 40.81,-58.99 h 239.26 l 15.14,48.27 h -90.99 l 29.99,29.99 h 70.4"
         style="fill:#abaaa9;fill-opacity:1;fill-rule:nonzero;stroke:none"
         id="path88" />
      <path
         d="m 2967.52,1955.85 h -728.11 l -7,-27.76 v 0 l -5.17,-20.51 h 752.44 l -4.05,16.06 -1.12,4.45 v 0 l -6.99,27.76"
         style="fill:#abaaa9;fill-opacity:1;fill-rule:nonzero;stroke:none"
         id="path90" />
      <path
         d="m 3391.35,1966.59 -314.23,50.35 9.75,-31.1 h 70.41 l 29.98,-29.99 h -90.99 l 15.14,-48.27 h 239.12 l 40.79,58.96 0.16,0.03 -0.13,0.02"
         style="fill:#abaaa9;fill-opacity:1;fill-rule:nonzero;stroke:none"
         id="path92" />
      <path
         d="m 1952.95,2099.82 105.12,11.19 -196.9,212.57 -88.39,-11.39 180.17,-212.37"
         style="fill:#abaaa9;fill-opacity:1;fill-rule:nonzero;stroke:none"
         id="path94" />
      <path
         d="m 1704.89,2303.44 -112.45,-14.49 146.58,-211.9 130.87,13.93 -165,212.46"
         style="fill:#abaaa9;fill-opacity:1;fill-rule:nonzero;stroke:none"
         id="path96" />
      <path
         d="m 3148.85,2111.01 104.99,-11.18 180.17,212.38 -88.26,11.37 -196.9,-212.57"
         style="fill:#abaaa9;fill-opacity:1;fill-rule:nonzero;stroke:none"
         id="path98" />
      <path
         d="M 2603.46,2530.52 2011.44,2354.75 2139.01,2229.63 2539,2348.7 v -11.28 l 27.21,-17.38 h 74.5 l 27.21,17.38 v 11.28 l 400,-119.07 127.56,125.12 -592.02,175.77"
         style="fill:#ffffff;fill-opacity:1;fill-rule:nonzero;stroke:none"
         id="path100" />
      <path
         d="m 61.2813,438.84 c 5.2617,0 24.375,0.82 57.3207,2.469 0.66,-1.969 0.992,-4.278 0.992,-6.918 0,-4.942 -0.664,-7.411 -1.977,-7.411 -3.297,0 -9.226,-1.16 -17.7889,-3.46 -8.5742,-2.309 -13.1836,-4.622 -13.8398,-6.918 C 83.0234,405.07 81.543,389.75 81.543,370.641 v -110.2 c 0,-37.23 7.9023,-66.89 23.719,-88.953 15.812,-22.078 38.215,-33.109 67.207,-33.109 56.336,0 84.508,37.062 84.508,111.191 v 123.551 c 0,20.09 -1.161,34.59 -3.461,43.481 -0.989,2.628 -6.672,5.187 -17.051,7.66 -10.375,2.476 -17.715,3.707 -21.988,3.707 -1.321,0 -1.981,1.89 -1.981,5.679 0,3.782 0.66,6.34 1.981,7.661 4.273,-0.329 12.847,-0.911 25.695,-1.719 12.848,-0.828 23.723,-1.238 32.617,-1.238 8.563,0 19.348,0.488 32.371,1.476 13.008,0.992 20.668,1.481 22.977,1.481 0.66,-1.969 0.992,-4.438 0.992,-7.411 0,-3.949 -0.664,-5.929 -1.977,-5.929 -3.3,0 -10.468,-1.321 -21.504,-3.949 -11.039,-2.641 -16.886,-5.122 -17.539,-7.418 -2.64,-10.211 -3.953,-25.532 -3.953,-45.961 V 250.559 c 0,-51.079 -10.711,-86.571 -32.121,-106.5 -21.422,-19.938 -51.89,-29.899 -91.422,-29.899 -39.211,0 -69.3591,11.531 -90.4372,34.59 -21.0899,23.059 -31.6289,60.289 -31.6289,111.691 v 112.18 c 0,20.43 -1.1602,35.09 -3.461,43.981 -0.9843,2.628 -5.6836,5.019 -14.082,7.168 -8.4023,2.14 -14.74999,3.21 -19.02734,3.21 C 0.660156,426.98 0,429.121 0,433.41 c 0,3.949 0.660156,6.578 1.97656,7.899 C 39.8594,439.66 59.625,438.84 61.2813,438.84"
         style="fill:#ffffff;fill-opacity:1;fill-rule:nonzero;stroke:none"
         id="path102" />
      <path
         d="m 326.211,115.891 c -5.77,5.757 -8.648,12.597 -8.648,20.507 0,7.911 2.878,14.582 8.648,20.012 5.762,5.442 12.605,8.16 20.508,8.16 7.91,0 14.578,-2.718 20.015,-8.16 5.434,-5.43 8.157,-12.101 8.157,-20.012 0,-7.91 -2.723,-14.75 -8.157,-20.507 -5.437,-5.762 -12.105,-8.653 -20.015,-8.653 -7.903,0 -14.746,2.891 -20.508,8.653"
         style="fill:#ffffff;fill-opacity:1;fill-rule:nonzero;stroke:none"
         id="path104" />
      <path
         d="m 432.484,356.309 c 0,25.371 9.711,46.211 29.157,62.519 19.433,16.313 42.004,24.461 67.703,24.461 7.238,0 14.082,-0.418 20.508,-1.238 6.421,-0.821 11.691,-1.731 15.812,-2.711 4.113,-0.988 10.043,-2.559 17.789,-4.699 7.738,-2.153 14.578,-3.871 20.508,-5.192 3.957,-17.461 5.934,-41.019 5.934,-70.66 0,-2.309 -1.657,-3.469 -4.946,-3.469 -7.906,0 -12.191,1.649 -12.844,4.95 -1.656,14.492 -8.652,28.57 -21.007,42.25 -12.352,13.671 -27.426,20.511 -45.215,20.511 -19.77,0 -33.692,-4.953 -41.762,-14.832 -8.078,-9.879 -12.105,-22.078 -12.105,-36.558 0,-6.27 1.148,-12.282 3.457,-18.051 2.3,-5.762 4.609,-10.539 6.918,-14.328 2.304,-3.793 6.504,-8.153 12.601,-13.09 6.094,-4.942 10.543,-8.402 13.344,-10.383 2.797,-1.98 8.406,-5.598 16.805,-10.867 8.398,-5.274 13.75,-8.57 16.058,-9.891 1.645,-0.98 7.414,-4.531 17.297,-10.621 9.883,-6.101 16.633,-10.379 20.266,-12.851 3.621,-2.469 9.304,-6.918 17.043,-13.34 7.742,-6.43 13.343,-12.11 16.804,-17.047 3.457,-4.953 6.75,-11.121 9.883,-18.531 3.129,-7.422 4.696,-15.082 4.696,-22.993 0,-26.359 -10.297,-48.019 -30.887,-64.98 -20.594,-16.969 -44.719,-25.449 -72.395,-25.449 -7.91,0 -16.308,0.582 -25.207,1.73 -8.894,1.16 -16.308,2.313 -22.234,3.461 -5.93,1.149 -13.43,2.789 -22.485,4.942 -9.07,2.136 -15.406,3.539 -19.031,4.199 -8.234,40.527 -12.351,66.711 -12.351,78.578 0,1.973 2.632,2.961 7.91,2.961 5.926,0 10.043,-1.481 12.351,-4.449 11.196,-47.442 38.547,-71.161 82.032,-71.161 16.472,0 30.472,4.938 42.007,14.829 11.532,9.882 17.297,23.882 17.297,42 0,6.589 -0.992,12.679 -2.968,18.293 -1.973,5.589 -4.039,10.207 -6.172,13.828 -2.149,3.629 -5.934,7.5 -11.367,11.621 -5.438,4.109 -9.641,7.16 -12.602,9.14 -2.969,1.981 -8.406,5.098 -16.309,9.387 -7.91,4.281 -13.343,7.242 -16.308,8.902 -9.559,5.598 -16.231,9.551 -20.012,11.86 -3.797,2.301 -10.055,6.34 -18.781,12.109 -8.735,5.75 -15.074,10.871 -19.028,15.313 -3.953,4.449 -8.574,9.886 -13.835,16.308 -5.278,6.43 -8.985,13.258 -11.118,20.508 -2.148,7.242 -3.211,14.832 -3.211,22.731"
         style="fill:#ffffff;fill-opacity:1;fill-rule:nonzero;stroke:none"
         id="path106" />
      <path
         d="m 670.129,115.891 c -5.77,5.757 -8.649,12.597 -8.649,20.507 0,7.911 2.879,14.582 8.649,20.012 5.762,5.442 12.605,8.16 20.508,8.16 7.91,0 14.578,-2.718 20.015,-8.16 5.438,-5.43 8.157,-12.101 8.157,-20.012 0,-7.91 -2.719,-14.75 -8.157,-20.507 -5.437,-5.762 -12.105,-8.653 -20.015,-8.653 -7.903,0 -14.746,2.891 -20.508,8.653"
         style="fill:#ffffff;fill-opacity:1;fill-rule:nonzero;stroke:none"
         id="path108" />
      <path
         d="M 914.781,378.551 V 182.859 c 0,-13.839 2.465,-26.371 7.41,-37.57 1.317,-3.289 10.129,-5.758 26.438,-7.41 16.309,-1.649 28.914,-2.469 37.809,-2.469 75.772,0 113.662,48.93 113.662,146.77 0,37.558 -9.97,69.519 -29.9,95.879 -19.94,26.351 -49.01,39.531 -87.22,39.531 h -2.472 c -35.586,0 -55.352,-2.641 -59.305,-7.899 -4.289,-5.941 -6.422,-16.312 -6.422,-31.14 z m -21.746,59.801 c 12.52,0 28.414,0.16 47.692,0.488 19.269,0.32 32.035,0.5 38.296,0.5 53.697,0 95.537,-15.82 125.517,-47.442 29.98,-31.628 44.98,-68.867 44.98,-111.687 0,-47.781 -15.16,-87.641 -45.47,-119.59 -30.31,-31.961 -72.15,-47.941 -125.523,-47.941 -3.953,0 -15.734,0.332 -35.336,0.992 -19.601,0.656 -35.992,0.808 -49.168,0.488 l -59.793,-1.48 c -0.992,0.992 -1.484,3.461 -1.484,7.41 0,4.609 0.492,6.922 1.484,6.922 4.274,0 10.622,1.148 19.024,3.457 8.402,2.301 13.422,4.941 15.07,7.91 2.305,3.949 3.461,19.43 3.461,46.449 v 186.813 c 0,19.429 -1.156,33.597 -3.461,42.488 -0.984,2.641 -5.851,5.101 -14.578,7.41 -8.73,2.313 -15.242,3.461 -19.516,3.461 -1.324,0 -1.976,1.98 -1.976,5.93 0,4.281 0.652,7.082 1.976,8.41 17.125,-0.668 36.731,-0.988 58.805,-0.988"
         style="fill:#ffffff;fill-opacity:1;fill-rule:nonzero;stroke:none"
         id="path110" />
      <path
         d="m 1270.79,311.34 c -17.13,0 -30.23,-7.328 -39.28,-21.988 -9.07,-14.661 -13.6,-26.774 -13.6,-36.321 0,-2.312 0.99,-3.461 2.97,-3.461 h 96.36 c 1.65,0 2.48,1.641 2.48,4.942 0,10.539 -4.45,22.648 -13.35,36.328 -8.89,13.66 -20.75,20.5 -35.58,20.5 z m 4.95,18.289 c 15.14,0 28.49,-2.891 40.02,-8.649 11.53,-5.769 20.34,-13.179 26.44,-22.242 6.09,-9.058 10.54,-18.289 13.34,-27.679 2.8,-9.379 4.21,-18.7 4.21,-27.918 0,-6.59 -1,-10.621 -2.97,-12.11 -1.97,-1.48 -5.77,-2.222 -11.36,-2.222 h -124.54 c -2.64,0 -3.95,-0.821 -3.95,-2.469 0,-20.762 6.25,-39.871 18.77,-57.32 12.52,-17.469 30.65,-26.2 54.37,-26.2 6.91,0 13.5,0.66 19.76,1.981 6.26,1.308 11.62,2.879 16.06,4.699 4.45,1.801 8.23,3.621 11.37,5.43 3.13,1.808 5.85,3.539 8.16,5.191 l 3.45,2.469 c 1.98,0 2.97,-2.149 2.97,-6.418 0,-2.641 -0.99,-5.613 -2.97,-8.902 -6.59,-9.219 -16.3,-17.54 -29.15,-24.95 -12.85,-7.422 -26.86,-11.121 -42.01,-11.121 -27.35,0 -50.82,10.289 -70.42,30.879 -19.61,20.594 -29.4,45.723 -29.4,75.371 0,34.59 9.3,61.93 27.92,82.031 18.6,20.098 41.92,30.149 69.93,30.149"
         style="fill:#ffffff;fill-opacity:1;fill-rule:nonzero;stroke:none"
         id="path112" />
      <path
         d="m 1476.57,305.41 c -10.21,0 -18.62,-2.719 -25.2,-8.148 -6.6,-5.442 -9.89,-13.274 -9.89,-23.473 V 162.59 c 0,-8.899 4.77,-16.391 14.33,-22.481 9.56,-6.097 19.93,-9.148 31.13,-9.148 19.44,0 34.92,8.73 46.46,26.199 11.53,17.449 17.3,37.059 17.3,58.801 0,27.68 -7.34,49.5 -21.99,65.488 -14.67,15.973 -32.05,23.961 -52.14,23.961 z m 15.81,24.219 c 31.63,0 56.34,-10.629 74.13,-31.879 17.79,-21.25 26.69,-43.898 26.69,-67.949 0,-31.633 -11.05,-59.473 -33.11,-83.52 -22.08,-24.051 -47.12,-36.07 -75.12,-36.07 -4.94,0 -9.31,0.168 -13.09,0.488 -3.79,0.332 -7.17,0.91 -10.14,1.731 -2.96,0.832 -5.27,1.57 -6.91,2.23 -1.65,0.649 -3.8,1.559 -6.43,2.711 -2.64,1.149 -4.28,1.899 -4.94,2.231 -1.32,-1.653 -1.98,-3.793 -1.98,-6.422 V 70.668 c 0,-19.0977 1.31,-33.7578 3.96,-43.9766 0.65,-2.3008 4.94,-4.5234 12.84,-6.6719 7.91,-2.1406 13.51,-3.2109 16.81,-3.2109 0.98,0 1.64,-2.0469 1.97,-6.1797 0.33,-4.10937 0.17,-6.83984 -0.49,-8.14843 -32.95,1.64844 -50.58,2.46875 -52.88,2.46875 -1.98,0 -19.94,-0.82031 -53.87,-2.46875 -1.31,1.30859 -1.97,4.03906 -1.97,8.14843 0,4.1328 0.66,6.1797 1.97,6.1797 3.96,0 9.81,1.0703 17.55,3.2109 7.74,2.1485 11.94,4.3711 12.6,6.6719 2.3,9.5586 3.46,21.0899 3.46,34.5899 V 265.391 c 0,12.839 -2.31,21.738 -6.92,26.679 -3.3,3.95 -7.34,6.668 -12.11,8.16 -4.77,1.481 -8.73,2.219 -11.86,2.219 -3.13,0 -4.69,0.321 -4.69,0.992 0,7.899 0.99,12.02 2.97,12.348 34.91,5.27 57.64,9.551 68.19,12.852 0.33,0 1.15,0.16 2.47,0.488 0.99,0 1.48,-0.91 1.48,-2.719 0,-1.808 -0.17,-4.031 -0.49,-6.672 -0.33,-2.636 -0.49,-4.117 -0.49,-4.449 v -2.961 c 4.6,3.293 12.27,7 22.97,11.121 10.71,4.11 19.85,6.18 27.43,6.18"
         style="fill:#ffffff;fill-opacity:1;fill-rule:nonzero;stroke:none"
         id="path114" />
      <path
         d="m 1671.03,146.039 c 5.6,-4.777 12.85,-7.168 21.75,-7.168 8.9,0 17.46,2.719 25.7,8.149 8.23,5.441 12.35,10.96 12.35,16.558 v 50.902 c -2.64,-1.32 -9.06,-3.628 -19.27,-6.921 -10.21,-3.289 -18.21,-6.18 -23.97,-8.649 -5.77,-2.469 -11.37,-6.59 -16.8,-12.351 -5.44,-5.77 -8.15,-12.438 -8.15,-20.02 0,-8.891 2.79,-15.73 8.39,-20.5 z m 46.46,183.59 c 18.12,0 31.13,-4.379 39.04,-13.098 7.9,-8.73 11.86,-22.82 11.86,-42.25 v -114.16 c 0,-6.922 1.81,-12.68 5.43,-17.301 3.63,-4.609 8.57,-6.922 14.83,-6.922 4.61,0 10.38,2.313 17.3,6.922 1.31,0 1.98,-1.32 1.98,-3.949 0,-4.281 -0.83,-7.742 -2.48,-10.383 -13.51,-11.527 -25.04,-17.289 -34.59,-17.289 -7.58,0 -14.82,3.129 -21.74,9.379 -6.92,6.262 -11.7,12.852 -14.34,19.774 -0.33,0 -1.56,-1.071 -3.7,-3.211 -2.15,-2.153 -5.03,-4.61 -8.65,-7.411 -3.63,-2.8 -7.83,-5.679 -12.6,-8.652 -4.78,-2.957 -10.38,-5.437 -16.8,-7.406 -6.43,-1.981 -12.94,-2.973 -19.52,-2.973 -15.16,0 -27.68,4.031 -37.56,12.11 -9.88,8.07 -14.83,20.179 -14.83,36.32 0,7.242 1.81,14.09 5.44,20.512 3.62,6.429 7.91,11.687 12.85,15.82 4.94,4.109 11.69,8.309 20.26,12.598 8.57,4.269 15.89,7.48 21.99,9.64 6.09,2.129 14.09,4.852 23.97,8.153 9.88,3.289 16.8,5.757 20.75,7.41 2.97,0.988 4.45,3.457 4.45,7.406 v 37.07 c 0,10.543 -3.3,18.692 -9.88,24.461 -6.6,5.762 -14.5,8.653 -23.72,8.653 -9.89,0 -18.12,-3.383 -24.71,-10.133 -6.59,-6.758 -9.88,-15.571 -9.88,-26.438 0,-11.531 -6.76,-17.301 -20.27,-17.301 -9.22,0 -15.65,3.129 -19.27,9.391 0,14.16 10.38,28.25 31.13,42.25 20.76,14 41.84,21.008 63.26,21.008"
         style="fill:#ffffff;fill-opacity:1;fill-rule:nonzero;stroke:none"
         id="path116" />
      <path
         d="m 1957.15,330.121 c 19.44,0 32.28,-4.781 38.55,-14.332 0,-11.539 -1.82,-19.93 -5.44,-25.199 -3.63,-5.281 -8.07,-7.91 -13.34,-7.91 -5.93,0 -11.37,2.789 -16.31,8.398 -4.94,5.602 -11.7,8.402 -20.26,8.402 -10.21,0 -19.11,-4.781 -26.68,-14.332 -7.59,-9.558 -11.37,-19.609 -11.37,-30.148 v -74.121 c 0,-19.109 1.31,-33.777 3.95,-43.981 0.66,-2.308 5.02,-4.539 13.1,-6.679 8.07,-2.141 13.75,-3.207 17.04,-3.207 1,0 1.65,-1.981 1.98,-5.934 0.33,-3.957 0.17,-6.75 -0.49,-8.398 -32.95,1.648 -50.74,2.468 -53.37,2.468 -1.98,0 -19.94,-0.82 -53.87,-2.468 -1.32,1.32 -1.98,4.031 -1.98,8.148 0,4.121 0.66,6.184 1.98,6.184 3.96,0 9.8,1.066 17.54,3.207 7.74,2.14 11.94,4.371 12.61,6.679 2.3,9.543 3.46,21.082 3.46,34.59 v 93.403 c 0,12.847 -2.31,21.738 -6.93,26.679 -3.29,3.961 -7.33,6.68 -12.1,8.16 -4.78,1.481 -8.73,2.231 -11.86,2.231 -3.14,0 -4.7,0.32 -4.7,0.98 0,7.911 0.99,12.02 2.97,12.348 34.92,5.27 57.65,9.563 68.2,12.852 0.32,0 1.14,0.168 2.47,0.5 1.31,0 2.14,-1.411 2.47,-4.2 0.32,-2.8 0.32,-4.863 0,-6.179 l -2.97,-24.711 c 5.93,8.898 14.09,17.219 24.47,24.961 10.37,7.738 20.66,11.609 30.88,11.609"
         style="fill:#ffffff;fill-opacity:1;fill-rule:nonzero;stroke:none"
         id="path118" />
      <path
         d="m 2045.05,298.988 h -28.66 c -1.65,0 -2.48,3.461 -2.48,10.383 0,1.969 0.17,3.129 0.5,3.457 9.55,4.274 19.93,13 31.13,26.192 3.62,4.281 7.17,9.14 10.63,14.57 3.45,5.441 6.34,10.14 8.65,14.09 2.3,3.961 3.46,6.09 3.46,6.422 9.88,0 14.82,-0.821 14.82,-2.461 v -48.93 c 8.57,0 21.58,-0.09 39.04,-0.25 17.46,-0.172 26.69,-0.242 27.67,-0.242 2.64,0 3.96,-1.489 3.96,-4.449 0,-5.93 -1.65,-12.2 -4.94,-18.782 H 2083.1 V 177.91 c 0,-13.18 3.38,-23.719 10.13,-31.629 6.75,-7.902 15.57,-11.863 26.44,-11.863 9.88,0 20.09,3.133 30.64,9.391 0.99,0.66 2.47,-0.739 4.45,-4.2 1.98,-3.461 2.79,-5.359 2.47,-5.679 -4.94,-5.27 -12.52,-10.461 -22.73,-15.571 -10.22,-5.097 -20.76,-7.66 -31.63,-7.66 -16.48,0 -30.23,5.442 -41.27,16.313 -11.04,10.867 -16.55,26.347 -16.55,46.457 v 125.519"
         style="fill:#ffffff;fill-opacity:1;fill-rule:nonzero;stroke:none"
         id="path120" />
      <path
         d="m 2322.37,330.621 c 13.17,0 24.12,-3.551 32.86,-10.633 8.73,-7.09 14.74,-15.238 18.04,-24.457 24.71,23.391 50.23,35.09 76.59,35.09 41.52,0 62.27,-31.633 62.27,-94.891 v -54.851 c 0,-19.109 1.31,-33.777 3.96,-43.981 0.65,-2.308 4.94,-4.539 12.84,-6.679 7.91,-2.141 13.51,-3.207 16.81,-3.207 0.98,0 1.64,-1.981 1.97,-5.934 0.33,-3.957 0.17,-6.75 -0.49,-8.398 -32.95,1.648 -50.58,2.468 -52.88,2.468 -1.97,0 -19.94,-0.82 -53.87,-2.468 -1.31,1.32 -1.97,4.031 -1.97,8.148 0,4.121 0.66,6.184 1.97,6.184 3.96,0 9.81,1.066 17.55,3.207 7.74,2.14 11.94,4.371 12.6,6.679 2.3,9.543 3.46,20.082 3.46,31.622 v 55.839 c 0,50.743 -16.64,76.11 -49.91,76.11 -12.19,0 -22.73,-3.539 -31.63,-10.617 -8.9,-7.09 -13.34,-12.942 -13.34,-17.551 l 0.49,-1.973 c 0,-1.328 0,-2.148 0,-2.476 1.31,-8.243 1.98,-20.102 1.98,-35.582 v -55.84 c 0,-16.149 1.31,-29.328 3.95,-39.532 0.66,-2.308 4.95,-4.539 12.85,-6.679 7.91,-2.141 13.51,-3.207 16.8,-3.207 0.99,0 1.65,-1.981 1.98,-5.934 0.32,-3.957 0.16,-6.75 -0.5,-8.398 -32.94,1.648 -50.57,2.468 -52.87,2.468 -1.98,0 -19.94,-0.82 -53.87,-2.468 -1.32,1.32 -1.97,4.031 -1.97,8.148 0,4.121 0.65,6.184 1.97,6.184 3.95,0 9.8,1.066 17.55,3.207 7.73,2.14 11.93,4.371 12.6,6.679 2.3,9.543 3.46,21.082 3.46,34.59 v 50.403 c 0,52.39 -15.82,78.578 -47.44,78.578 -9.89,0 -19.86,-3.707 -29.9,-11.117 -10.06,-7.411 -15.07,-14.582 -15.07,-21.5 v -86.973 c 0,-19.109 1.3,-33.777 3.95,-43.981 0.66,-2.308 4.94,-4.539 12.84,-6.679 7.91,-2.141 13.51,-3.207 16.81,-3.207 0.99,0 1.64,-1.981 1.97,-5.934 0.33,-3.957 0.17,-6.75 -0.49,-8.398 -32.95,1.648 -50.57,2.468 -52.88,2.468 -1.97,0 -19.93,-0.82 -53.86,-2.468 -1.32,1.32 -1.98,4.031 -1.98,8.148 0,4.121 0.66,6.184 1.98,6.184 3.95,0 9.8,1.066 17.54,3.207 7.74,2.14 11.94,4.371 12.6,6.679 2.31,9.543 3.46,21.082 3.46,34.59 v 93.403 c 0,12.847 -2.31,21.738 -6.92,26.679 -3.29,3.961 -7.33,6.68 -12.1,8.16 -4.78,1.481 -8.74,2.231 -11.86,2.231 -3.14,0 -4.7,0.32 -4.7,0.98 0,7.911 0.99,12.02 2.97,12.348 34.92,5.27 57.64,9.563 68.19,12.852 0.33,0 1.15,0.168 2.48,0.5 1.3,0 2.13,-1.411 2.46,-4.2 0.33,-2.8 0.33,-4.863 0,-6.179 -1.31,-9.223 -1.97,-15.813 -1.97,-19.774 0,-1.32 0.32,-1.968 0.99,-1.968 0.32,0 0.82,0.32 1.48,0.992 7.58,7.898 17.87,15.386 30.89,22.476 13.01,7.082 25.45,10.633 37.31,10.633"
         style="fill:#ffffff;fill-opacity:1;fill-rule:nonzero;stroke:none"
         id="path122" />
      <path
         d="m 2647.99,311.34 c -17.13,0 -30.22,-7.328 -39.28,-21.988 -9.07,-14.661 -13.59,-26.774 -13.59,-36.321 0,-2.312 0.99,-3.461 2.96,-3.461 h 96.37 c 1.64,0 2.47,1.641 2.47,4.942 0,10.539 -4.45,22.648 -13.34,36.328 -8.9,13.66 -20.76,20.5 -35.59,20.5 z m 4.95,18.289 c 15.15,0 28.49,-2.891 40.03,-8.649 11.52,-5.769 20.33,-13.179 26.43,-22.242 6.1,-9.058 10.54,-18.289 13.35,-27.679 2.79,-9.379 4.2,-18.7 4.2,-27.918 0,-6.59 -0.99,-10.621 -2.97,-12.11 -1.97,-1.48 -5.77,-2.222 -11.36,-2.222 h -124.54 c -2.64,0 -3.95,-0.821 -3.95,-2.469 0,-20.762 6.25,-39.871 18.78,-57.32 12.51,-17.469 30.64,-26.2 54.36,-26.2 6.92,0 13.5,0.66 19.76,1.981 6.26,1.308 11.62,2.879 16.06,4.699 4.45,1.801 8.23,3.621 11.37,5.43 3.13,1.808 5.85,3.539 8.16,5.191 l 3.46,2.469 c 1.97,0 2.96,-2.149 2.96,-6.418 0,-2.641 -0.99,-5.613 -2.96,-8.902 -6.6,-9.219 -16.31,-17.54 -29.16,-24.95 -12.85,-7.422 -26.86,-11.121 -42,-11.121 -27.36,0 -50.83,10.289 -70.43,30.879 -19.61,20.594 -29.4,45.723 -29.4,75.371 0,34.59 9.3,61.93 27.92,82.031 18.61,20.098 41.92,30.149 69.93,30.149"
         style="fill:#ffffff;fill-opacity:1;fill-rule:nonzero;stroke:none"
         id="path124" />
      <path
         d="m 2897.39,330.621 c 23.06,0 39.21,-8.242 48.43,-24.723 9.22,-16.468 13.84,-43.148 13.84,-80.046 v -44.973 c 0,-19.109 1.31,-33.777 3.95,-43.981 0.66,-2.308 4.94,-4.539 12.85,-6.679 7.91,-2.141 13.51,-3.207 16.8,-3.207 0.99,0 1.65,-1.981 1.98,-5.934 0.32,-3.957 0.17,-6.75 -0.49,-8.398 -32.95,1.648 -50.58,2.468 -52.88,2.468 -0.66,0 -17.96,-0.82 -51.89,-2.468 -1.32,1.32 -1.98,4.031 -1.98,8.148 0,4.121 0.66,6.184 1.98,6.184 3.95,0 9.47,1.066 16.55,3.207 7.09,2.14 10.96,4.371 11.62,6.679 2.3,9.543 3.46,21.082 3.46,34.59 v 49.422 c 0,30.629 -3.96,51.551 -11.86,62.762 -7.91,11.187 -20.76,16.797 -38.55,16.797 -10.55,0 -20.68,-3.879 -30.39,-11.61 -9.72,-7.75 -14.58,-14.75 -14.58,-21.007 v -86.973 c 0,-19.109 1.31,-33.777 3.95,-43.981 0.66,-2.308 4.95,-4.539 12.85,-6.679 7.91,-2.141 13.51,-3.207 16.81,-3.207 0.98,0 1.64,-1.981 1.97,-5.934 0.33,-3.957 0.16,-6.75 -0.49,-8.398 -32.95,1.648 -50.58,2.468 -52.88,2.468 -1.98,0 -19.94,-0.82 -53.87,-2.468 -1.31,1.32 -1.97,4.031 -1.97,8.148 0,4.121 0.66,6.184 1.97,6.184 3.96,0 9.81,1.066 17.55,3.207 7.74,2.14 11.94,4.371 12.6,6.679 2.3,9.543 3.46,21.082 3.46,34.59 v 93.403 c 0,12.847 -2.31,21.738 -6.92,26.679 -3.3,3.961 -7.34,6.68 -12.11,8.16 -4.77,1.481 -8.73,2.231 -11.86,2.231 -3.13,0 -4.69,0.32 -4.69,0.98 0,7.911 0.99,12.02 2.96,12.348 34.92,5.27 57.65,9.563 68.2,12.852 0.32,0 1.15,0.168 2.47,0.5 1.31,0 2.14,-1.411 2.47,-4.2 0.33,-2.8 0.33,-4.863 0,-6.179 -1.32,-9.223 -1.97,-15.813 -1.97,-19.774 0,-1.32 0.32,-1.968 0.98,-1.968 0.33,0 0.82,0.32 1.48,0.992 7.58,7.898 17.87,15.386 30.89,22.476 13.01,7.082 25.45,10.633 37.31,10.633"
         style="fill:#ffffff;fill-opacity:1;fill-rule:nonzero;stroke:none"
         id="path126" />
      <path
         d="m 3027.16,298.988 h -28.66 c -1.65,0 -2.47,3.461 -2.47,10.383 0,1.969 0.16,3.129 0.49,3.457 9.56,4.274 19.93,13 31.14,26.192 3.62,4.281 7.16,9.14 10.62,14.57 3.46,5.441 6.34,10.14 8.65,14.09 2.3,3.961 3.46,6.09 3.46,6.422 9.88,0 14.83,-0.821 14.83,-2.461 v -48.93 c 8.56,0 21.57,-0.09 39.04,-0.25 17.46,-0.172 26.68,-0.242 27.67,-0.242 2.64,0 3.95,-1.489 3.95,-4.449 0,-5.93 -1.65,-12.2 -4.94,-18.782 h -65.72 V 177.91 c 0,-13.18 3.37,-23.719 10.13,-31.629 6.75,-7.902 15.57,-11.863 26.44,-11.863 9.88,0 20.09,3.133 30.64,9.391 0.98,0.66 2.47,-0.739 4.45,-4.2 1.97,-3.461 2.79,-5.359 2.46,-5.679 -4.94,-5.27 -12.52,-10.461 -22.73,-15.571 -10.21,-5.097 -20.75,-7.66 -31.62,-7.66 -16.48,0 -30.24,5.442 -41.27,16.313 -11.04,10.867 -16.56,26.347 -16.56,46.457 v 125.519"
         style="fill:#ffffff;fill-opacity:1;fill-rule:nonzero;stroke:none"
         id="path128" />
      <path
         d="m 3354.42,308.871 c -16.48,0 -31.47,-12.93 -44.98,-38.793 -13.51,-25.867 -20.26,-51.816 -20.26,-77.84 0,-19.109 3.05,-33.929 9.15,-44.468 6.09,-10.551 13.75,-15.821 22.98,-15.821 16.47,0 31.05,12.93 43.73,38.789 12.68,25.871 19.02,51.973 19.02,78.332 0,19.442 -2.63,34.27 -7.9,44.481 -5.28,10.211 -12.53,15.32 -21.74,15.32 z m 5.92,20.258 c 19.44,0 34.51,-6.75 45.23,-20.258 10.7,-13.512 16.05,-32.121 16.05,-55.84 0,-33.941 -11.94,-65.98 -35.83,-96.121 -23.88,-30.148 -48.35,-45.219 -73.38,-45.219 -19.77,0 -34.84,6.43 -45.22,19.27 -10.37,12.848 -15.56,31.141 -15.56,54.859 0,34.258 11.86,66.719 35.58,97.36 23.72,30.629 48.1,45.949 73.13,45.949"
         style="fill:#ffffff;fill-opacity:1;fill-rule:nonzero;stroke:none"
         id="path130" />
      <path
         d="m 3606.44,459.602 c 21.08,0 34.6,-5.614 40.53,-16.801 0,-21.422 -5.93,-32.133 -17.79,-32.133 -4.62,0 -8.99,2.473 -13.1,7.41 -4.12,4.953 -8.4,9.961 -12.85,15.082 -4.45,5.102 -9.31,7.66 -14.58,7.66 -10.55,0 -21.74,-10.8 -33.6,-32.371 -11.86,-21.578 -21.09,-51.64 -27.68,-90.187 v -0.992 c 0,-1.321 0.5,-1.981 1.48,-1.981 h 56.84 c 1.64,0 2.47,-1.969 2.47,-5.918 0,-5.281 -1.82,-10.883 -5.44,-16.801 h -57.81 c -1.66,0 -2.65,-1.332 -2.97,-3.961 L 3494.76,140.852 C 3486.85,95.0586 3472.93,60.1406 3453,36.0781 3433.06,12.0391 3411.4,0 3388.01,0 c -11.52,0 -20.58,2.07031 -27.18,6.17969 -6.58,4.12891 -10.87,8.82031 -12.84,14.08981 -0.33,7.5821 1.48,14.3321 5.43,20.2618 3.96,5.9296 8.9,8.8867 14.83,8.8867 2.96,0 5.77,-1.5469 8.4,-4.6875 2.64,-3.1289 4.94,-6.5899 6.92,-10.3789 1.98,-3.7813 4.86,-7.2422 8.65,-10.3828 3.79,-3.1172 7.99,-4.6875 12.6,-4.6875 6.25,0 12.51,3.8671 18.78,11.6093 6.25,7.7383 11.61,17.4688 16.06,29.1602 4.45,11.6992 8.23,22.8086 11.36,33.3476 3.13,10.5506 5.36,19.9416 6.67,28.1716 l 29.66,167.539 v 0.981 c 0,1.648 -0.5,2.48 -1.49,2.48 h -32.12 c -0.66,0 -0.99,0.489 -0.99,1.481 0,2.961 2.63,7.238 7.91,12.847 5.26,5.602 10.54,8.391 15.81,8.391 h 14.33 c 1.32,0 2.31,1.492 2.97,4.449 6.59,40.532 20.75,73.961 42.5,100.321 21.75,26.363 45.13,39.543 70.17,39.543"
         style="fill:#ffffff;fill-opacity:1;fill-rule:nonzero;stroke:none"
         id="path132" />
      <path
         d="M 3800.13,378.551 V 182.859 c 0,-13.839 2.47,-26.371 7.41,-37.57 1.32,-3.289 10.13,-5.758 26.44,-7.41 16.31,-1.649 28.91,-2.469 37.81,-2.469 75.77,0 113.66,48.93 113.66,146.77 0,37.558 -9.97,69.519 -29.9,95.879 -19.93,26.351 -49.01,39.531 -87.22,39.531 h -2.47 c -35.59,0 -55.35,-2.641 -59.31,-7.899 -4.28,-5.941 -6.42,-16.312 -6.42,-31.14 z m -21.74,59.801 c 12.51,0 28.41,0.16 47.69,0.488 19.27,0.32 32.03,0.5 38.3,0.5 53.69,0 95.53,-15.82 125.51,-47.442 29.98,-31.628 44.98,-68.867 44.98,-111.687 0,-47.781 -15.16,-87.641 -45.47,-119.59 -30.31,-31.961 -72.15,-47.941 -125.52,-47.941 -3.95,0 -15.74,0.332 -35.34,0.992 -19.6,0.656 -35.99,0.808 -49.17,0.488 l -59.79,-1.48 c -0.99,0.992 -1.48,3.461 -1.48,7.41 0,4.609 0.49,6.922 1.48,6.922 4.28,0 10.62,1.148 19.02,3.457 8.41,2.301 13.43,4.941 15.08,7.91 2.3,3.949 3.46,19.43 3.46,46.449 v 186.813 c 0,19.429 -1.16,33.597 -3.46,42.488 -0.99,2.641 -5.86,5.101 -14.58,7.41 -8.73,2.313 -15.24,3.461 -19.52,3.461 -1.32,0 -1.98,1.98 -1.98,5.93 0,4.281 0.66,7.082 1.98,8.41 17.12,-0.668 36.73,-0.988 58.81,-0.988"
         style="fill:#ffffff;fill-opacity:1;fill-rule:nonzero;stroke:none"
         id="path134" />
      <path
         d="m 4156.14,311.34 c -17.13,0 -30.23,-7.328 -39.28,-21.988 -9.07,-14.661 -13.6,-26.774 -13.6,-36.321 0,-2.312 1,-3.461 2.97,-3.461 h 96.37 c 1.64,0 2.47,1.641 2.47,4.942 0,10.539 -4.45,22.648 -13.35,36.328 -8.89,13.66 -20.75,20.5 -35.58,20.5 z m 4.95,18.289 c 15.14,0 28.49,-2.891 40.02,-8.649 11.53,-5.769 20.34,-13.179 26.44,-22.242 6.09,-9.058 10.54,-18.289 13.34,-27.679 2.8,-9.379 4.21,-18.7 4.21,-27.918 0,-6.59 -0.99,-10.621 -2.97,-12.11 -1.97,-1.48 -5.77,-2.222 -11.36,-2.222 h -124.54 c -2.64,0 -3.95,-0.821 -3.95,-2.469 0,-20.762 6.25,-39.871 18.77,-57.32 12.52,-17.469 30.65,-26.2 54.37,-26.2 6.91,0 13.5,0.66 19.76,1.981 6.26,1.308 11.62,2.879 16.06,4.699 4.45,1.801 8.23,3.621 11.37,5.43 3.13,1.808 5.85,3.539 8.16,5.191 l 3.45,2.469 c 1.98,0 2.97,-2.149 2.97,-6.418 0,-2.641 -0.99,-5.613 -2.97,-8.902 -6.59,-9.219 -16.3,-17.54 -29.15,-24.95 -12.85,-7.422 -26.86,-11.121 -42.01,-11.121 -27.35,0 -50.82,10.289 -70.42,30.879 -19.61,20.594 -29.4,45.723 -29.4,75.371 0,34.59 9.3,61.93 27.92,82.031 18.61,20.098 41.92,30.149 69.93,30.149"
         style="fill:#ffffff;fill-opacity:1;fill-rule:nonzero;stroke:none"
         id="path136" />
      <path
         d="m 4392.68,457.621 c 23.72,0 39.37,-6.422 46.95,-19.269 0,-20.762 -5.93,-31.141 -17.79,-31.141 -4.29,0 -8.4,2.551 -12.36,7.66 -3.95,5.109 -8.48,10.301 -13.59,15.57 -5.11,5.27 -11.29,7.911 -18.53,7.911 -14.5,0 -25.7,-8.903 -33.6,-26.692 -7.91,-17.789 -11.86,-38.719 -11.86,-62.762 v -25.199 c 0,-1.66 0.81,-2.469 2.47,-2.469 h 54.85 c 1.65,0 2.47,-1.16 2.47,-3.46 0,-5.27 -1.97,-11.872 -5.93,-19.77 h -50.9 c -1.97,0 -2.96,-0.988 -2.96,-2.969 V 180.879 c 0,-17.801 1.48,-32.461 4.45,-43.981 0.65,-2.308 4.69,-4.539 12.1,-6.679 7.41,-2.141 12.6,-3.207 15.57,-3.207 0.99,0 1.65,-1.981 1.98,-5.934 0.32,-3.957 0.16,-6.75 -0.5,-8.398 -32.94,1.648 -50.58,2.468 -52.87,2.468 -1,0 -18.29,-0.82 -51.9,-2.468 -0.66,0.66 -1.15,2.218 -1.48,4.691 -0.33,2.481 -0.33,4.699 0,6.68 0.33,1.969 0.82,2.961 1.48,2.961 3.96,0 9.56,1.066 16.81,3.207 7.24,2.14 11.19,4.371 11.86,6.679 3.29,12.84 4.94,27.5 4.94,43.981 v 113.66 c 0,2.301 -0.83,3.461 -2.47,3.461 h -26.19 c -0.99,0 -1.49,0.988 -1.49,2.961 0,2.969 2.63,7.09 7.91,12.359 5.26,5.258 10.87,7.91 16.81,7.91 h 2.96 c 1.64,0 2.47,0.989 2.47,2.961 v 6.43 c 0,34.59 10.29,64.399 30.89,89.438 20.58,25.043 43.07,37.562 67.45,37.562"
         style="fill:#ffffff;fill-opacity:1;fill-rule:nonzero;stroke:none"
         id="path138" />
      <path
         d="m 4495.73,311.34 c -17.13,0 -30.23,-7.328 -39.29,-21.988 -9.06,-14.661 -13.59,-26.774 -13.59,-36.321 0,-2.312 0.99,-3.461 2.97,-3.461 h 96.36 c 1.65,0 2.48,1.641 2.48,4.942 0,10.539 -4.45,22.648 -13.35,36.328 -8.89,13.66 -20.75,20.5 -35.58,20.5 z m 4.94,18.289 c 15.15,0 28.5,-2.891 40.03,-8.649 11.53,-5.769 20.34,-13.179 26.44,-22.242 6.09,-9.058 10.54,-18.289 13.34,-27.679 2.8,-9.379 4.2,-18.7 4.2,-27.918 0,-6.59 -0.99,-10.621 -2.96,-12.11 -1.98,-1.48 -5.77,-2.222 -11.37,-2.222 h -124.53 c -2.64,0 -3.95,-0.821 -3.95,-2.469 0,-20.762 6.25,-39.871 18.77,-57.32 12.52,-17.469 30.64,-26.2 54.36,-26.2 6.92,0 13.51,0.66 19.77,1.981 6.25,1.308 11.62,2.879 16.06,4.699 4.45,1.801 8.23,3.621 11.37,5.43 3.12,1.808 5.85,3.539 8.15,5.191 l 3.46,2.469 c 1.98,0 2.97,-2.149 2.97,-6.418 0,-2.641 -0.99,-5.613 -2.97,-8.902 -6.59,-9.219 -16.3,-17.54 -29.15,-24.95 -12.85,-7.422 -26.86,-11.121 -42.01,-11.121 -27.35,0 -50.82,10.289 -70.42,30.879 -19.61,20.594 -29.41,45.723 -29.41,75.371 0,34.59 9.31,61.93 27.93,82.031 18.6,20.098 41.92,30.149 69.92,30.149"
         style="fill:#ffffff;fill-opacity:1;fill-rule:nonzero;stroke:none"
         id="path140" />
      <path
         d="m 4745.13,330.621 c 23.05,0 39.2,-8.242 48.43,-24.723 9.22,-16.468 13.84,-43.148 13.84,-80.046 v -44.973 c 0,-19.109 1.31,-33.777 3.95,-43.981 0.66,-2.308 4.94,-4.539 12.85,-6.679 7.91,-2.141 13.51,-3.207 16.8,-3.207 0.99,0 1.65,-1.981 1.98,-5.934 0.32,-3.957 0.16,-6.75 -0.5,-8.398 -32.94,1.648 -50.57,2.468 -52.87,2.468 -0.67,0 -17.97,-0.82 -51.89,-2.468 -1.32,1.32 -1.98,4.031 -1.98,8.148 0,4.121 0.66,6.184 1.98,6.184 3.95,0 9.46,1.066 16.55,3.207 7.08,2.14 10.95,4.371 11.62,6.679 2.29,9.543 3.45,21.082 3.45,34.59 v 49.422 c 0,30.629 -3.95,51.551 -11.86,62.762 -7.9,11.187 -20.75,16.797 -38.54,16.797 -10.55,0 -20.68,-3.879 -30.4,-11.61 -9.72,-7.75 -14.57,-14.75 -14.57,-21.007 v -86.973 c 0,-19.109 1.31,-33.777 3.95,-43.981 0.66,-2.308 4.94,-4.539 12.85,-6.679 7.91,-2.141 13.5,-3.207 16.8,-3.207 0.99,0 1.65,-1.981 1.98,-5.934 0.32,-3.957 0.16,-6.75 -0.5,-8.398 -32.94,1.648 -50.57,2.468 -52.87,2.468 -1.98,0 -19.94,-0.82 -53.87,-2.468 -1.32,1.32 -1.98,4.031 -1.98,8.148 0,4.121 0.66,6.184 1.98,6.184 3.95,0 9.8,1.066 17.55,3.207 7.73,2.14 11.93,4.371 12.6,6.679 2.3,9.543 3.46,21.082 3.46,34.59 v 93.403 c 0,12.847 -2.31,21.738 -6.92,26.679 -3.3,3.961 -7.34,6.68 -12.11,8.16 -4.78,1.481 -8.73,2.231 -11.86,2.231 -3.14,0 -4.7,0.32 -4.7,0.98 0,7.911 0.99,12.02 2.97,12.348 34.92,5.27 57.65,9.563 68.19,12.852 0.33,0 1.16,0.168 2.48,0.5 1.31,0 2.14,-1.411 2.47,-4.2 0.32,-2.8 0.32,-4.863 0,-6.179 -1.32,-9.223 -1.98,-15.813 -1.98,-19.774 0,-1.32 0.32,-1.968 0.99,-1.968 0.33,0 0.82,0.32 1.48,0.992 7.58,7.898 17.87,15.386 30.89,22.476 13.01,7.082 25.45,10.633 37.31,10.633"
         style="fill:#ffffff;fill-opacity:1;fill-rule:nonzero;stroke:none"
         id="path142" />
      <path
         d="m 4939.63,330.121 c 7.24,0 16.38,-0.91 27.43,-2.711 11.03,-1.82 18.69,-3.058 22.97,-3.711 3.29,-15.16 5.27,-31.961 5.93,-50.41 0,-1.648 -2.14,-2.469 -6.42,-2.469 -4.62,0 -7.09,1.149 -7.42,3.461 -1.65,9.219 -6.34,17.949 -14.08,26.188 -7.74,8.23 -16.55,12.359 -26.44,12.359 -23.72,0 -35.58,-9.726 -35.58,-29.156 0,-4.942 0.66,-9.32 1.98,-13.102 1.31,-3.789 3.86,-7.41 7.66,-10.871 3.78,-3.461 6.67,-5.929 8.65,-7.41 1.97,-1.488 6.34,-4.129 13.09,-7.91 6.75,-3.789 10.95,-6.18 12.6,-7.168 1.32,-0.66 5.19,-2.891 11.62,-6.672 6.42,-3.789 10.95,-6.508 13.59,-8.148 2.63,-1.653 6.5,-4.45 11.61,-8.403 5.11,-3.957 8.81,-7.5 11.12,-10.629 2.3,-3.129 4.53,-7.089 6.67,-11.859 2.14,-4.781 3.21,-9.641 3.21,-14.582 0,-19.438 -7.58,-35.656 -22.73,-48.68 -15.16,-13.008 -32.94,-19.508 -53.37,-19.508 -6.92,0 -13.26,0.411 -19.03,1.231 -5.77,0.828 -12.6,2.219 -20.51,4.199 -7.9,1.981 -14,3.289 -18.28,3.961 -1.98,5.258 -3.88,13.5 -5.69,24.699 -1.81,11.2 -2.71,20.102 -2.71,26.692 2.63,1.976 4.61,2.957 5.93,2.957 4.94,0 7.57,-0.981 7.9,-2.957 1.98,-9.883 8.16,-19.524 18.54,-28.91 10.38,-9.391 21.66,-14.09 33.85,-14.09 10.54,0 19.19,2.886 25.95,8.66 6.74,5.746 10.12,14.078 10.12,24.949 0,5.598 -1.07,10.789 -3.21,15.57 -2.14,4.77 -5.6,9.047 -10.37,12.84 -4.78,3.789 -9.23,6.93 -13.35,9.391 -4.12,2.476 -9.97,5.687 -17.54,9.637 -7.59,3.961 -13.18,7.082 -16.8,9.39 -25.7,14.832 -38.55,32.449 -38.55,52.879 0,17.793 7.17,32.281 21.5,43.492 14.33,11.2 31.05,16.801 50.16,16.801"
         style="fill:#ffffff;fill-opacity:1;fill-rule:nonzero;stroke:none"
         id="path144" />
      <path
         d="m 5126.65,311.34 c -17.13,0 -30.22,-7.328 -39.28,-21.988 -9.07,-14.661 -13.59,-26.774 -13.59,-36.321 0,-2.312 0.99,-3.461 2.96,-3.461 h 96.37 c 1.64,0 2.47,1.641 2.47,4.942 0,10.539 -4.45,22.648 -13.34,36.328 -8.9,13.66 -20.76,20.5 -35.59,20.5 z m 4.95,18.289 c 15.15,0 28.49,-2.891 40.03,-8.649 11.52,-5.769 20.33,-13.179 26.43,-22.242 6.1,-9.058 10.54,-18.289 13.35,-27.679 2.79,-9.379 4.2,-18.7 4.2,-27.918 0,-6.59 -0.99,-10.621 -2.97,-12.11 -1.97,-1.48 -5.77,-2.222 -11.36,-2.222 h -124.54 c -2.64,0 -3.95,-0.821 -3.95,-2.469 0,-20.762 6.25,-39.871 18.77,-57.32 12.52,-17.469 30.65,-26.2 54.37,-26.2 6.92,0 13.5,0.66 19.76,1.981 6.26,1.308 11.62,2.879 16.06,4.699 4.45,1.801 8.23,3.621 11.37,5.43 3.13,1.808 5.85,3.539 8.16,5.191 l 3.46,2.469 c 1.97,0 2.96,-2.149 2.96,-6.418 0,-2.641 -0.99,-5.613 -2.96,-8.902 -6.6,-9.219 -16.31,-17.54 -29.16,-24.95 -12.85,-7.422 -26.86,-11.121 -42.01,-11.121 -27.35,0 -50.82,10.289 -70.42,30.879 -19.61,20.594 -29.4,45.723 -29.4,75.371 0,34.59 9.3,61.93 27.92,82.031 18.61,20.098 41.92,30.149 69.93,30.149"
         style="fill:#ffffff;fill-opacity:1;fill-rule:nonzero;stroke:none"
         id="path146" />
    </g>
  </g>
</svg>
