<?xml version="1.0" encoding="UTF-8" standalone="no"?>
<!-- Created with Inkscape (http://www.inkscape.org/) -->

<svg
   width="302.05267mm"
   height="304.79245mm"
   viewBox="0 0 302.05267 304.79245"
   version="1.1"
   id="svg1"
   xml:space="preserve"
   inkscape:version="1.4 (e7c3feb100, 2024-10-09)"
   sodipodi:docname="Hass.svg"
   xmlns:inkscape="http://www.inkscape.org/namespaces/inkscape"
   xmlns:sodipodi="http://sodipodi.sourceforge.net/DTD/sodipodi-0.dtd"
   xmlns="http://www.w3.org/2000/svg"
   xmlns:svg="http://www.w3.org/2000/svg"><sodipodi:namedview
     id="namedview1"
     pagecolor="#ffffff"
     bordercolor="#000000"
     borderopacity="0.25"
     inkscape:showpageshadow="2"
     inkscape:pageopacity="0.0"
     inkscape:pagecheckerboard="0"
     inkscape:deskcolor="#d1d1d1"
     inkscape:document-units="mm"
     inkscape:zoom="0.1681994"
     inkscape:cx="618.31372"
     inkscape:cy="-573.72379"
     inkscape:window-width="938"
     inkscape:window-height="1017"
     inkscape:window-x="2166"
     inkscape:window-y="125"
     inkscape:window-maximized="1"
     inkscape:current-layer="layer1" /><defs
     id="defs1" /><g
     inkscape:label="Layer 1"
     inkscape:groupmode="layer"
     id="layer1"
     transform="translate(46.02634,3.8962262)"><path
       style="fill:#eaeaea;fill-opacity:1"
       d="m 111.42412,299.61775 c -4.70592,-2.26713 -13.91141,-7.4527 -17.46251,-9.83683 -1.04075,-0.69875 -1.15279,-0.71356 -6.74687,-0.89168 -15.96854,-0.50846 -34.25308,-1.77426 -48.28646,-3.34275 -8.06871,-0.90184 -20.11832,-2.62737 -23.0849,-3.30583 l -0.59531,-0.13614 v -19.971 c 0,-17.63782 0.0467,-19.971 0.39968,-19.971 0.21982,0 1.44021,0.22987 2.71198,0.51083 3.10244,0.6854 9.57018,1.73332 14.74772,2.38947 5.51946,0.69948 14.49568,1.60991 14.62248,1.48312 0.0546,-0.0546 -0.91948,-1.55026 -2.16462,-3.32367 -7.87287,-11.21299 -14.77658,-24.21689 -19.73626,-37.17538 -0.83545,-2.18281 -1.73421,-4.65336 -1.99726,-5.4901 l -0.47827,-1.52136 -20.12616,-0.0377 c -11.06939,-0.0207 -26.67986,-0.11001 -34.68993,-0.19844 l -14.56377,-0.16077 9.4072,-16.27188 9.4072,-16.27187 21.52439,-0.0677 21.5244,-0.0677 -0.16485,-1.12292 c -0.0907,-0.61758 -0.36462,-3.08743 -0.60877,-5.48852 -0.40016,-3.93526 -0.45292,-11.02323 -0.53514,-71.900517 l -0.0912,-67.534899 1.26549,-6e-4 c 3.06827,-0.001 14.08213,-0.57276 18.06654,-0.93713 26.31975,-2.40694 54.02461,-9.9435502 76.40578,-20.7848202 l 4.30681,-2.08619 1.38173,0.77645 c 4.2723,2.40078 16.85077,7.6491 25.06193,10.45701 22.61014,7.7318202 43.82761,11.6025302 68.32757,12.4650102 l 4.95986,0.17461 0.0672,31.09313 0.0672,31.093129 1.70233,-2.97416 c 0.93628,-1.635789 1.82925,-3.022589 1.98437,-3.081779 0.15513,-0.0592 8.76692,-0.0768 19.13734,-0.0392 l 18.8553,0.0685 -20.87325,36.149926 -20.87323,36.14993 -0.30499,5.25736 c -1.55114,26.73861 -8.6762,51.58044 -21.30012,74.26373 -1.28052,2.3009 -2.27756,4.23411 -2.21565,4.29601 0.0619,0.0619 4.39044,1.73387 9.61898,3.71548 5.22853,1.9816 9.66861,3.69201 9.86684,3.80091 0.4158,0.22843 0.21345,0.2754 -5.23988,1.21621 -3.45772,0.59653 -13.36664,1.97024 -14.21186,1.97024 -0.26845,0 -0.36019,-1.12961 -0.41611,-5.12362 l -0.0717,-5.12361 -2.3678,3.73455 c -1.30229,2.054 -3.36078,5.14872 -4.57443,6.87714 -1.21364,1.72842 -2.15536,3.19385 -2.0927,3.25651 0.16023,0.16023 10.19757,-0.87662 16.04639,-1.65758 5.68587,-0.7592 11.81039,-1.79146 14.66701,-2.47204 l 2.00174,-0.47692 v 20.05412 c 0,18.8677 -0.0274,20.06267 -0.46302,20.1987 -0.97088,0.30316 -10.51195,1.76035 -16.47031,2.51548 -16.34469,2.07144 -36.20701,3.56987 -55.09991,4.15678 l -5.7551,0.17878 -3.50532,2.16631 c -6.09628,3.76755 -17.08411,9.66561 -17.98747,9.65534 -0.18398,-0.002 -1.52513,-0.5774 -2.98034,-1.27846 z m 7.22688,-2.27872 c 4.16463,-2.11519 9.69042,-5.20556 12.48458,-6.98216 l 1.71979,-1.09349 -18.51356,-0.003 c -15.71025,-0.002 -18.43454,0.0521 -17.99167,0.35822 3.06899,2.12126 17.06249,9.68082 17.93524,9.68896 0.264,0.002 2.22853,-0.88359 4.36562,-1.96901 z M 115.91874,278.199 c 2.67192,-1.23139 3.56029,-2.71864 3.56936,-5.97558 0.008,-2.69881 -0.38032,-3.92644 -1.63766,-5.18379 -1.59813,-1.59813 -2.82328,-1.9115 -8.03756,-2.0559 l -4.52165,-0.12522 -0.1747,3.6428 c -0.0961,2.00353 -0.17471,5.18123 -0.17471,7.06155 v 3.41877 l 4.82865,-0.0872 c 4.37231,-0.079 4.95336,-0.1447 6.14827,-0.69539 z m -7.53442,-5.11239 c 0.002,-1.94685 0.0767,-3.9862 0.16691,-4.53191 l 0.164,-0.99218 h 2.49206 c 4.08496,0 4.84704,0.67691 4.84704,4.30534 0,2.53906 -0.36749,3.6482 -1.3918,4.20065 -0.32592,0.17578 -1.8725,0.3732 -3.43685,0.43871 l -2.84427,0.1191 z m 16.20979,4.39778 c 0.30934,-0.7276 0.68733,-1.41039 0.83998,-1.5173 0.15264,-0.10691 1.90708,-0.19621 3.89876,-0.19844 l 3.62123,-0.004 0.74439,1.38906 0.7444,1.38906 1.5875,-0.0927 c 0.87312,-0.051 1.6301,-0.13324 1.68216,-0.18286 0.0521,-0.0496 -1.52175,-3.10354 -3.49736,-6.78651 l -3.59203,-6.69631 -1.84937,0.0874 c -1.57805,0.0746 -1.87415,0.16549 -2.01824,0.61949 -0.0929,0.29263 -1.35845,3.05126 -2.81237,6.13028 -1.45393,3.07903 -2.81558,5.99071 -3.02589,6.47041 l -0.38239,0.87218 1.74839,-0.0784 1.7484,-0.0784 z m 1.77897,-3.98979 c 0,-0.11243 0.56186,-1.57679 1.24858,-3.25413 l 1.24859,-3.04972 1.41713,2.98822 c 0.77943,1.64352 1.33894,3.06662 1.24337,3.16245 -0.25068,0.25134 -5.15767,0.39708 -5.15767,0.15318 z m -25.5556,4.05594 c 0.0778,-0.61847 0.17962,-3.71409 0.22632,-6.87917 l 0.0849,-5.75469 h -1.53303 -1.53302 l -0.0232,3.10886 c -0.0127,1.70987 -0.10205,3.69865 -0.19844,4.41952 l -0.17526,1.31066 -3.82391,-4.6841 -3.82391,-4.6841 h -1.23049 -1.23049 l -0.16854,2.97656 c -0.0927,1.63711 -0.24666,4.71916 -0.34212,6.84901 l -0.17358,3.87246 1.37856,0.1896 c 0.75821,0.10428 1.45176,0.11641 1.54121,0.0269 0.0895,-0.0894 0.25033,-2.07595 0.3575,-4.41444 0.10717,-2.33849 0.24623,-4.30317 0.30901,-4.36596 0.0628,-0.0628 1.17421,1.16619 2.46983,2.73106 5.43003,6.55844 5.29039,6.42226 6.58519,6.42226 h 1.16203 z m 44.86609,-1.05834 c -0.002,-0.9095 -0.12467,-3.4263 -0.27205,-5.59288 -0.14737,-2.16658 -0.22391,-3.98328 -0.17008,-4.03711 0.0538,-0.0538 1.15852,-0.18618 2.45486,-0.2941 l 2.35699,-0.19622 -0.0903,-1.19062 c -0.0497,-0.65485 -0.11164,-1.2129 -0.13769,-1.24013 -0.0767,-0.0802 -10.7799,0.463 -12.00896,0.60942 l -1.12448,0.13396 v 1.17442 1.17441 h 2.49028 2.49029 l 0.14683,0.99219 c 0.0808,0.5457 0.2255,3.04601 0.32165,5.55625 l 0.17482,4.56406 h 1.68598 1.68598 z m -65.47472,0.49451 c 1.55213,-0.71059 2.59254,-1.91355 3.00203,-3.47107 0.15304,-0.58208 0.36007,-2.92154 0.46006,-5.19878 l 0.18181,-4.14045 -1.56015,-0.106 c -0.85809,-0.0583 -1.5916,-0.0885 -1.63003,-0.0671 -0.0384,0.0214 -0.19958,2.05135 -0.3581,4.51103 -0.21284,3.30239 -0.40571,4.67975 -0.7374,5.26588 -0.59982,1.05995 -2.07861,1.54896 -3.97984,1.31608 -1.16328,-0.14249 -1.61706,-0.35252 -2.35412,-1.08958 l -0.91307,-0.91307 0.17938,-2.95342 c 0.0987,-1.62438 0.25178,-3.80997 0.34028,-4.85688 l 0.1609,-1.90347 -1.65832,-0.0915 c -0.95851,-0.0529 -1.69127,0.0202 -1.73639,0.17308 -0.24072,0.81592 -0.68558,8.97394 -0.53354,9.78438 0.10373,0.55294 0.59664,1.42469 1.15786,2.04776 2.21937,2.46396 6.65205,3.21606 9.97864,1.6931 z m 76.8547,0.0112 c -8.1e-4,-0.2079 -1.04006,-13.5364 -1.05546,-13.5364 -3.9e-4,0 -0.71531,0.0403 -1.5887,0.0897 l -1.58798,0.0897 v 1.0316 c 0,1.2883 0.78429,12.1872 0.90292,12.54744 0.12472,0.37871 3.33073,0.16499 3.32922,-0.22194 z m 13.96229,-1.2319 c 1.64913,-0.70944 3.08504,-2.21151 3.52825,-3.6908 0.44677,-1.49117 -0.0442,-5.45597 -0.8541,-6.89695 -1.1758,-2.09206 -3.63551,-3.09798 -6.90503,-2.82387 -3.42978,0.28754 -5.92891,2.06828 -6.55287,4.66921 -0.39101,1.62993 0.0488,5.2466 0.80081,6.58454 0.60412,1.07488 1.82103,2.01326 3.35546,2.58744 1.45807,0.54561 4.87552,0.3241 6.62748,-0.42957 z m -5.93017,-2.09855 c -1.0781,-0.65738 -1.41388,-1.72422 -1.48858,-4.7294 -0.0564,-2.27063 -0.0198,-2.45654 0.60913,-3.08814 0.97895,-0.98313 3.34495,-1.4367 4.81449,-0.92295 1.533,0.53595 1.98745,1.43483 2.20883,4.36893 0.14572,1.93135 0.0993,2.55224 -0.24001,3.20835 -0.80331,1.55343 -4.17459,2.21765 -5.90386,1.16321 z m -102.35489,1.90066 c 1.28951,-0.66864 2.37789,-1.78286 2.78017,-2.84619 0.52079,-1.37654 0.8056,-4.86989 0.49697,-6.09556 -0.39145,-1.55457 -1.56663,-2.86826 -3.34868,-3.74335 -1.33985,-0.65794 -1.80868,-0.74442 -4.03571,-0.74442 -2.18391,0 -2.69524,0.0903 -3.83645,0.67714 -1.4136,0.72697 -2.33899,1.85947 -2.77231,3.39278 -0.4832,1.7098 -0.62242,4.63422 -0.27128,5.6982 0.63414,1.92147 2.54857,3.50832 4.96391,4.11454 1.63933,0.41145 4.81701,0.17239 6.02338,-0.45314 z M 56.6352,273.4111 c -1.50233,-0.68233 -1.82216,-1.56588 -1.60228,-4.4264 0.0953,-1.23957 0.35839,-2.61182 0.58468,-3.04943 1.1131,-2.15249 5.70598,-1.92456 6.87771,0.34133 0.44981,0.86983 0.3642,3.4491 -0.18579,5.5975 -0.48888,1.90967 -3.22311,2.6503 -5.67432,1.537 z m 124.89065,1.26259 c 0.1585,-0.14653 0.0567,-1.84946 -0.27483,-4.59797 -0.28961,-2.40089 -0.50583,-4.36525 -0.48049,-4.36525 0.0253,0 2.11354,1.79119 4.64045,3.98042 4.5844,3.97176 4.59686,3.98017 5.73194,3.86748 0.62565,-0.0621 1.2053,-0.18067 1.2881,-0.26348 0.0828,-0.0828 -0.22563,-2.80543 -0.68541,-6.05029 -1.21555,-8.57875 -0.91435,-7.63004 -2.36333,-7.44409 -0.67595,0.0867 -1.32697,0.24622 -1.44671,0.35437 -0.11974,0.10816 0.0365,1.94487 0.34727,4.08158 0.31075,2.13671 0.52778,4.06319 0.4823,4.28108 -0.0542,0.25977 -1.60927,-0.92946 -4.51703,-3.45442 -4.27392,-3.71126 -4.47676,-3.85056 -5.60678,-3.85056 -0.64484,0 -1.23964,0.10873 -1.32178,0.24164 -0.12158,0.19672 0.68902,7.9703 1.31628,12.62304 l 0.14705,1.09072 1.24562,-0.13078 c 0.68509,-0.0719 1.3589,-0.23549 1.49735,-0.36349 z M 40.14073,271.0021 c 0.17312,-1.38245 0.33491,-2.53997 0.35953,-2.57226 0.0246,-0.0323 1.66669,0.15587 3.64904,0.41816 l 3.60427,0.47688 0.1478,-0.55045 c 0.0813,-0.30275 0.14944,-0.8051 0.15142,-1.11632 0.004,-0.64329 -0.13543,-0.68045 -4.45426,-1.18613 l -2.73807,-0.32059 0.18448,-1.74183 c 0.10147,-0.95801 0.20251,-1.75641 0.22454,-1.77422 0.022,-0.0178 1.70693,0.18585 3.74422,0.45256 5.12645,0.67114 4.7975,0.71171 4.97526,-0.61355 0.0826,-0.61568 0.11911,-1.15045 0.0812,-1.18839 -0.10035,-0.10034 -11.65857,-1.62486 -11.73765,-1.54819 -0.1423,0.13798 -1.9743,13.41264 -1.86598,13.52095 0.20732,0.20733 2.98652,0.56576 3.1752,0.40951 0.10134,-0.0839 0.3259,-1.28368 0.49903,-2.66613 z m 98.27089,-22.22397 c 14.51549,-0.35446 28.51678,-0.99743 38.11378,-1.75027 l 2.13045,-0.16712 2.00134,-2.81213 c 18.39845,-25.85224 29.17261,-55.29851 31.71737,-86.68505 0.16518,-2.0373 0.25984,-4.18676 0.21036,-4.77659 -0.0851,-1.01503 -1.40681,1.21108 -24.69622,41.59648 l -24.60625,42.6689 -19.14128,0.009 -19.14129,0.009 0.65592,-1.12448 c 3.62932,-6.22191 21.09019,-36.53077 21.09019,-36.60868 0,-0.0562 -4.07789,-0.11746 -9.06197,-0.13603 -4.98409,-0.0186 -11.22823,-0.10788 -13.87586,-0.19844 l -4.81388,-0.16466 9.44409,-16.33546 9.44408,-16.33546 14.03697,-0.003 14.03696,-0.003 23.46773,-40.6552 23.46772,-40.655207 v -9.351039 -9.35105 H 114.32165 15.75147 l 0.10004,44.119266 c 0.1034,45.59724 0.13549,47.05602 1.19765,54.43676 l 0.19056,1.32418 35.85536,0.0671 35.85536,0.0671 25.90372,-44.87479 c 14.24703,-24.681127 26.03064,-44.923216 26.18579,-44.982416 0.15515,-0.0592 8.76478,-0.0768 19.13251,-0.0392 l 18.85042,0.0685 -31.76887,55.033336 c -17.47287,30.26833 -34.17777,59.20052 -37.12199,64.29375 -2.94422,5.09323 -9.51343,16.48856 -14.59823,25.32295 l -9.24509,16.06254 -19.12546,0.0109 c -18.13558,0.0103 -19.1125,-0.0131 -18.87511,-0.45212 0.13768,-0.25466 5.02343,-8.7275 10.85722,-18.82853 5.83379,-10.10102 10.60689,-18.40563 10.60689,-18.45468 0,-0.0491 -10.06078,-0.0892 -22.35729,-0.0892 -13.71199,0 -22.35729,0.0958 -22.35729,0.24769 0,0.38469 3.20235,8.79509 4.64061,12.18773 1.97025,4.64753 7.49936,15.55089 10.06279,19.84375 2.6977,4.51772 6.53145,10.36183 8.80854,13.4276 1.37182,1.84697 1.73766,2.18282 2.3777,2.18282 0.41604,0 2.23223,0.11754 4.036,0.26121 7.9118,0.63017 27.35633,1.47436 38.60144,1.67588 10.52136,0.18856 35.61014,0.14158 44.84688,-0.084 z M 48.58557,151.01356 v -1.45521 h -7.14375 -7.14375 v -2.74418 -2.74418 l -1.32291,-2.0265 -1.32292,-2.02651 v -11.89395 -11.89394 l 7.47448,-0.0703 7.47448,-0.0703 0.0761,-2.44739 0.0761,-2.4474 h 3.69424 3.69423 v -2.38125 -2.38125 h 5.68855 5.68854 v 4.89479 4.8948 h 3.83646 3.83645 v -2.77813 -2.77812 h 4.22408 4.22408 l 0.0754,2.71198 0.0754,2.71197 2.05052,0.0773 2.05052,0.0773 v 11.7214 c 0,11.03234 -0.0311,11.81183 -0.52917,13.25946 -0.42186,1.22617 -0.52916,2.22712 -0.52916,4.93621 v 3.39817 h -8.33438 -8.33437 v 1.45521 1.4552 h -1.19063 -1.19062 v -1.45932 -1.45933 l -7.47448,0.0703 -7.47448,0.0703 -0.08,1.38906 -0.08,1.38906 h -1.04451 -1.04451 z m 34.13125,-5.55625 v -1.98438 H 59.56578 36.41474 v 1.98438 1.98437 h 23.15104 23.15104 z m -36.04667,-15.67657 0.069,-11.44323 h -6.35281 -6.35281 v 2.91042 2.91042 h 4.7625 4.7625 v 1.05833 1.05833 h -4.7625 -4.7625 v 3.43959 3.43958 h 4.7625 4.7625 v 1.05833 1.05834 h -4.7625 -4.7625 v 2.15784 c 0,1.90882 0.0783,2.26055 0.6789,3.04791 l 0.6789,0.89009 5.60495,-0.0714 5.60496,-0.0714 z m 22.55292,8.66511 v -2.91042 H 59.03661 48.85016 v 2.73403 c 0,1.50371 0.0794,2.8134 0.17638,2.91041 0.097,0.097 4.68092,0.17639 10.18646,0.17639 h 10.01007 z m 14.13034,1.67266 c 0.35744,-1.04904 0.42175,-2.8039 0.42175,-11.50938 v -10.27162 h -6.21771 -6.21771 v 11.33299 c 0,6.23314 0.0794,11.41236 0.17639,11.50937 0.097,0.097 2.7052,0.17639 5.79596,0.17639 h 5.61957 z M 73.19182,126.67189 v -6.48229 h 4.23334 4.23333 v 4.89479 4.89479 h -3.175 c -2.99861,0 -3.175,0.0294 -3.175,0.52917 0,0.49709 0.17639,0.52916 2.91042,0.52916 h 2.91041 v 1.05834 1.05833 h -3.96875 -3.96875 z m 6.35,-1.73092 V 122.284 l -2.05052,0.0773 -2.05052,0.0773 -0.0776,2.22684 c -0.0427,1.22476 -0.0166,2.38562 0.0578,2.57968 0.0963,0.25086 0.7114,0.35285 2.12808,0.35285 h 1.99268 z m -26.9875,2.92154 v -5.55625 h -1.85208 -1.85208 v 5.55625 5.55625 h 1.85208 1.85208 z m 10.71563,0 v -5.42395 h -0.92604 -0.92605 l -0.08,1.38906 c -0.0675,1.17288 -0.16017,1.38906 -0.59531,1.38906 -0.42484,0 -0.51534,0.18585 -0.51534,1.05833 v 1.05834 h -1.05833 -1.05834 v -1.05834 c 0,-0.94647 -0.0684,-1.05833 -0.64763,-1.05833 -0.59472,0 -0.65416,-0.11347 -0.7276,-1.38906 l -0.08,-1.38906 -0.99219,-0.0821 -0.99219,-0.0821 v 5.57878 5.57877 l 4.29948,-0.0727 4.29948,-0.0727 z m 5.95312,0 v -5.55625 h -1.85208 -1.85208 v 5.55625 5.55625 h 1.85208 1.85208 z m 0,-8.59896 v -0.92604 H 59.03661 48.85016 v 0.92604 0.92605 h 10.18645 10.18646 z m -15.08125,-4.50749 v -1.46479 l -2.57968,0.0757 -2.57969,0.0757 -0.0838,1.02001 c -0.14111,1.71806 -0.0791,1.75812 2.7213,1.75812 h 2.52185 z m 9.12813,-2.37167 v -3.70417 l -3.50573,-0.0738 -3.50573,-0.0738 v 3.66775 c 0,2.01726 0.0828,3.75051 0.18391,3.85166 0.10115,0.10115 1.67873,0.15076 3.50573,0.11024 l 3.32182,-0.0737 z m 16.21835,2.05052 0.0788,-1.65365 h -2.12929 -2.12929 v 1.54341 c 0,0.84887 0.0841,1.62749 0.18688,1.73028 0.10278,0.10278 1.02551,0.15239 2.05052,0.11024 l 1.86364,-0.0766 z M 32.3137,96.580453 c -2.06475,-0.73886 -3.81233,-2.6506 -4.39563,-4.80853 -0.35647,-1.31874 -0.16348,-3.51362 0.40572,-4.61432 l 0.42009,-0.81237 -2.02943,-0.0773 -2.02943,-0.0773 -1.11955,-3.04271 c -0.61575,-1.6735 -1.42592,-3.85139 -1.80038,-4.83975 l -0.68082,-1.797039 7.91283,0.0772 7.91284,0.0772 0.77928,0.74698 c 0.42861,0.410829 0.98569,1.204689 1.23796,1.764129 l 0.45868,1.01716 4.0666,-1.42496 c 4.18247,-1.465559 6.89922,-2.045509 16.03052,-3.422089 5.33823,-0.80476 5.88539,-0.81613 6.56509,-0.13643 0.47672,0.47671 0.52917,0.88195 0.52917,4.088149 v 3.55898 l 14.08906,0.0922 c 13.39554,0.0877 14.16841,0.11906 15.70098,0.63746 1.50152,0.5079 1.66461,0.51635 2.38125,0.12339 0.51218,-0.28085 1.43263,-0.42123 2.75371,-0.42 2.34337,0.002 3.60084,0.54828 5.11059,2.21939 l 0.97345,1.07749 h 2.10286 2.10286 l 0.0806,1.25677 0.0806,1.25678 3.9026,0.0732 3.9026,0.0732 v 2.50646 2.50647 h -5.76791 c -3.98804,0 -5.86165,-0.0937 -6.07165,-0.30372 -0.22857,-0.22858 -0.66136,0.0231 -1.7492,1.01737 -1.66767,1.52415 -3.16122,2.05818 -5.25833,1.88016 -2.44473,-0.20753 -4.406,-1.51834 -5.51017,-3.68271 -0.42224,-0.82765 -0.66985,-1.02776 -1.27169,-1.02776 -0.86799,0 -1.62313,0.71749 -1.62313,1.54218 v 0.57449 h -26.056 -26.0561 l -1.35258,1.02373 c -0.74393,0.56306 -1.80195,1.15837 -2.35117,1.32292 -1.22578,0.36725 -3.31152,0.35456 -4.37677,-0.0266 z m 4.03978,-1.93577 c 1.30743,-0.54628 2.14504,-1.35237 2.73619,-2.63321 0.61927,-1.34179 0.62016,-2.62046 0.003,-3.9797 -1.6326,-3.59414 -6.4568,-3.98604 -8.66844,-0.7042 -2.6446,3.92434 1.57811,9.13523 5.9295,7.31711 z m -3.8285,-1.43187 c -2.2812,-1.39093 -2.232,-4.85642 0.0907,-6.38773 0.92654,-0.61086 2.73677,-0.65461 3.82391,-0.0924 1.09141,0.56438 1.82506,1.86656 1.82626,3.24144 0.002,2.25819 -1.47431,3.75519 -3.70318,3.75519 -0.7152,0 -1.52886,-0.20623 -2.03768,-0.51647 z m 3.36059,-1.8628 c 0.69266,-0.69265 0.67278,-1.7974 -0.0461,-2.56263 -0.74389,-0.79184 -1.6643,-0.77808 -2.47944,0.0371 -0.79339,0.79338 -0.8212,1.44209 -0.10107,2.35759 0.67092,0.85294 1.86529,0.92932 2.62663,0.16798 z m 67.61199,3.20684 c 1.30489,-0.59273 2.39,-1.83275 2.75554,-3.14891 0.3864,-1.39131 0.33575,-2.15272 -0.22385,-3.36522 -1.16063,-2.51475 -3.88437,-3.64997 -6.31783,-2.6332 -4.15252,1.73503 -4.26953,7.2634 -0.19356,9.14459 1.3418,0.61927 2.62047,0.62016 3.9797,0.003 z m -4.03299,-1.34404 c -2.2957,-1.39977 -2.19995,-5.25939 0.16075,-6.48016 2.57925,-1.33378 5.57763,0.40796 5.5801,3.24144 0.002,2.25819 -1.47431,3.75519 -3.70318,3.75519 -0.7152,0 -1.52886,-0.20623 -2.03767,-0.51647 z m 3.27739,-1.90892 c 0.83582,-0.78522 0.7997,-1.88478 -0.0848,-2.58051 -0.38343,-0.3016 -0.90315,-0.54837 -1.15495,-0.54837 -0.77986,0 -1.85208,1.03517 -1.85208,1.78809 0,0.89517 0.96706,1.91608 1.81501,1.91608 0.36543,0 0.93999,-0.25888 1.27679,-0.57529 z m -11.68497,0.55703 c 0.23602,-0.74362 1.65692,-1.56705 2.70619,-1.56825 0.79928,-9.2e-4 0.85989,-0.0636 0.85989,-0.88975 0,-0.48881 0.33294,-1.5488 0.73985,-2.35552 l 0.73985,-1.46676 -0.93828,-0.28066 c -0.51606,-0.15436 -1.6229,-0.36092 -2.45965,-0.45903 l -1.52135,-0.17838 v 2.28539 2.28539 H 80.47856 69.77364 l -0.0769,-2.18282 -0.0768,-2.18281 -8.33437,0.0936 -8.33438,0.0936 -3.96257,1.28843 c -2.17942,0.70864 -4.05939,1.19161 -4.17772,1.07328 -0.11833,-0.11833 -0.24017,-0.54806 -0.27076,-0.95496 -0.0542,-0.72093 0.0322,-0.77014 3.38397,-1.92754 l 3.43958,-1.18772 6.21771,-0.20838 c 3.41974,-0.11461 6.42607,-0.21879 6.68073,-0.23151 0.41396,-0.0207 0.46302,-0.35953 0.46302,-3.19814 0,-1.78199 -0.10801,-3.174999 -0.24617,-3.174999 -0.39957,0 -10.21785,1.548829 -13.40947,2.115339 -2.52238,0.44773 -4.94233,1.19825 -11.41583,3.5405 l -1.12667,0.40765 -0.92198,-1.83081 c -0.50709,-1.00695 -1.15312,-1.95452 -1.43562,-2.10571 -0.47289,-0.25308 -12.19009,-0.42048 -12.19009,-0.17416 0,0.0963 1.60769,4.55777 1.98975,5.52167 0.28789,0.72633 3.99951,0.65781 5.48748,-0.1013 0.61913,-0.31585 1.83774,-0.62304 2.76776,-0.69769 1.48164,-0.11894 1.84762,-0.0418 3.37924,0.71222 2.7347,1.34628 4.02136,3.66928 3.76959,6.80578 l -0.13497,1.68151 h 24.82254 24.82254 z m 26.84942,-0.11403 v -0.66146 h -3.96875 -3.96875 v -1.32292 c 0,-1.29352 -0.0176,-1.32291 -0.79375,-1.32291 -0.7602,0 -0.79375,0.0486 -0.79375,1.14997 0,0.63249 0.18731,1.52546 0.41625,1.98438 l 0.41625,0.8344 h 4.34625 4.34625 z m -28.575,-5.55625 v -1.19063 h -8.86355 -8.86354 v 1.19063 1.19062 h 8.86354 8.86355 z m -22.1039,-4.82865 c 0.56361,-3.909409 4.62497,-5.531029 7.59451,-3.03232 0.97326,0.81894 1.5448,2.06005 1.5448,3.35455 v 0.93454 h -4.66025 -4.66025 z m 6.74608,-1.14688 c -0.37921,-0.70855 -1.77236,-1.29066 -2.67564,-1.11799 -0.38671,0.0739 -1.03404,0.47982 -1.4385,0.90198 l -0.73538,0.76758 h 2.57235 c 2.52519,0 2.56694,-0.0101 2.27717,-0.55157 z M 46.8151,51.899424 c 1.04652,-0.16074 2.07862,-0.38896 2.29356,-0.50716 0.24479,-0.1346 0.79914,-1.95654 1.48367,-4.87624 l 1.09287,-4.66134 -2.53222,0.0753 -2.53221,0.0753 -0.48122,2.11666 c -0.26466,1.16417 -0.60108,2.56315 -0.74758,3.10886 l -0.26638,0.99218 h -2.12386 c -4.02235,0 -4.23081,-0.46546 -2.86492,-6.3971 1.31761,-5.72198 1.76496,-6.1706 6.15305,-6.1706 1.62645,0 3.57891,0.0929 4.33881,0.20656 l 1.38165,0.20657 0.92858,-1.84393 c 1.077,-2.13862 1.23273,-1.9713 -2.22972,-2.39554 -7.74824,-0.94936 -12.45586,0.66663 -14.33815,4.92186 -0.75191,1.6998 -2.33536,8.73013 -2.33653,10.37386 -0.003,3.58762 2.30617,4.99383 8.28268,5.0449 1.42734,0.0122 3.4514,-0.10934 4.49792,-0.27008 z m 142.90783,-0.38608 c 2.76035,-0.97855 4.61348,-3.97874 4.32324,-6.99927 -0.17656,-1.83756 -0.96213,-2.74607 -3.32983,-3.85096 -1.11864,-0.52202 -2.31785,-1.08739 -2.66492,-1.25639 -0.34707,-0.16901 -0.81208,-0.5836 -1.03337,-0.92132 -0.36157,-0.55182 -0.35901,-0.70488 0.0252,-1.51065 0.33451,-0.70146 0.67459,-0.96367 1.56254,-1.20471 1.07382,-0.2915 3.29714,-0.22345 5.51858,0.16892 0.94158,0.16631 0.94586,0.16265 1.65364,-1.4145 1.05963,-2.36116 1.16672,-2.22926 -2.21115,-2.72317 -6.66644,-0.97477 -11.43915,1.37377 -12.06456,5.93669 -0.33204,2.42249 0.89784,4.13892 3.84167,5.36147 3.10717,1.29038 3.9164,2.21512 3.23915,3.70153 -0.69768,1.53124 -4.18156,1.82916 -8.92282,0.76302 -0.47745,-0.10736 -0.65806,0.13661 -1.28599,1.7371 -0.40179,1.0241 -0.66415,1.92838 -0.58302,2.00952 0.0811,0.0811 1.13608,0.3084 2.34433,0.50504 2.89923,0.47184 7.84326,0.31594 9.58728,-0.30232 z M 66.99475,51.199494 c 0.0897,-0.40018 0.26986,-1.14432 0.40044,-1.65364 0.4261,-1.6619 0.61826,-1.58751 -4.10012,-1.58751 h -4.34051 l 0.34456,-1.38906 c 0.1895,-0.76398 0.41773,-1.71304 0.50717,-2.10901 l 0.1626,-0.71994 3.49325,-0.0738 3.49326,-0.0738 0.43511,-1.91823 0.43511,-1.91823 h -3.40231 c -3.69653,0 -3.58351,0.0567 -3.16194,-1.5875 0.13059,-0.50932 0.31078,-1.25346 0.40044,-1.65365 l 0.16301,-0.7276 h 4.34815 4.34815 l 0.27934,-0.99219 c 0.15363,-0.5457 0.35337,-1.44071 0.44385,-1.98891 l 0.16451,-0.99672 -6.84507,0.0707 -6.84508,0.0707 -2.16332,9.26041 c -1.18982,5.09323 -2.22976,9.58784 -2.31097,9.98802 l -0.14766,0.72761 h 6.86751 6.86751 z m 8.55002,-0.26458 c 0.14117,-0.54571 0.76845,-3.22104 1.39396,-5.9452 0.62551,-2.72415 1.22234,-4.86728 1.3263,-4.7625 0.10397,0.10478 1.25459,2.75035 2.55694,5.87905 l 2.36791,5.68854 2.5106,0.0753 c 2.4235,0.0727 2.51583,0.0544 2.66116,-0.52916 0.67452,-2.70835 4.40935,-19.00625 4.40935,-19.24133 0,-0.20839 -0.74964,-0.27739 -2.44073,-0.22468 l -2.44073,0.0761 -1.3743,5.88885 c -0.75587,3.23887 -1.41738,6.01807 -1.47003,6.176 -0.0526,0.15793 -0.91652,-1.77768 -1.91972,-4.30135 -1.0032,-2.52368 -2.15542,-5.33265 -2.56047,-6.24215 l -0.73647,-1.65365 h -2.37449 c -2.03176,0 -2.39467,0.0668 -2.51431,0.46302 -0.32902,1.08952 -4.39375,18.90456 -4.39375,19.2571 0,0.31235 0.46334,0.38822 2.37105,0.38822 h 2.37105 z m 31.15584,-0.46302 c 0.63156,-2.72079 0.95109,-2.51355 -3.87545,-2.51355 -2.32834,0 -4.23486,-0.0893 -4.23673,-0.19843 -0.002,-0.10914 0.19772,-1.05833 0.44352,-2.10931 l 0.44691,-1.91088 3.44782,-0.0735 3.44783,-0.0735 0.30076,-1.05833 c 0.16541,-0.58208 0.37586,-1.44529 0.46766,-1.91823 l 0.16692,-0.8599 h -3.4508 c -3.16011,0 -3.43974,-0.039 -3.31951,-0.46302 0.0722,-0.25466 0.27777,-1.14763 0.4568,-1.98437 l 0.32552,-1.52136 h 4.41079 4.41078 l 0.39769,-1.8522 c 0.21872,-1.01872 0.33821,-1.91168 0.26551,-1.98438 -0.0727,-0.0727 -3.14039,-0.13217 -6.81712,-0.13217 -6.13759,0 -6.69626,0.0379 -6.82312,0.46302 -0.37288,1.24957 -4.3954,18.83493 -4.3954,19.21553 0,0.39904 0.61608,0.43233 6.81127,0.36811 l 6.81127,-0.0706 z m 16.48756,-2.18282 c 0.46373,-2.00091 0.90182,-3.84638 0.97353,-4.10104 0.11555,-0.41038 0.51937,-0.46302 3.55212,-0.46302 1.88197,0 3.42176,0.0702 3.42176,0.15596 0,0.20724 -1.56088,6.98794 -1.74785,7.59294 -0.13447,0.43511 0.0592,0.46679 2.42664,0.39687 l 2.57277,-0.076 2.19773,-9.39271 c 1.20875,-5.16598 2.20356,-9.66506 2.21068,-9.99794 0.0127,-0.59301 -0.0362,-0.60371 -2.41825,-0.52917 l -2.4312,0.0761 -0.19182,0.79375 c -0.1055,0.43656 -0.51648,2.19273 -0.9133,3.9026 l -0.72149,3.10886 h -3.40237 c -2.5472,0 -3.40158,-0.0831 -3.39921,-0.33073 0.002,-0.1819 0.3575,-1.81901 0.79058,-3.63802 0.43309,-1.81901 0.78885,-3.45612 0.79059,-3.63802 0.004,-0.37407 -4.62914,-0.49087 -4.85683,-0.12246 -0.0708,0.11456 -1.09558,4.37104 -2.2773,9.45886 -1.18172,5.08782 -2.21529,9.51847 -2.29683,9.84589 -0.14592,0.58597 -0.10884,0.59531 2.36433,0.59531 h 2.51257 z m 19.97613,1.91823 0.96176,-1.71979 h 3.2893 c 3.69566,0 3.4664,-0.1422 3.62574,2.24896 l 0.0705,1.05833 2.57969,0.0757 c 1.98703,0.0583 2.57968,-0.004 2.57968,-0.27036 0,-0.68738 -2.91443,-19.30927 -3.05849,-19.54236 -0.0812,-0.13148 -1.03516,-0.23905 -2.11978,-0.23905 h -1.97205 l -0.8877,1.38907 c -1.66753,2.60931 -11.07158,18.03756 -11.20254,18.37884 -0.10114,0.26356 0.46805,0.34043 2.52074,0.34043 h 2.65136 z m 3.31711,-5.80934 c 0,-0.0664 0.74291,-1.46376 1.65091,-3.10515 l 1.65091,-2.98434 0.16337,1.18692 c 0.0898,0.6528 0.24074,2.05012 0.33531,3.10514 l 0.17195,1.91823 h -1.98623 c -1.09242,0 -1.98622,-0.0544 -1.98622,-0.1208 z m 16.66875,5.80934 0.92604,-1.71908 3.34262,-3.6e-4 3.34261,-3.5e-4 0.18418,1.71979 0.18417,1.7198 h 2.63676 2.63677 l -0.15907,-0.8599 c -0.0875,-0.47294 -0.78585,-4.96755 -1.55192,-9.98802 l -1.39286,-9.12813 -2.12886,-0.0763 -2.12887,-0.0763 -6.02353,9.86586 c -3.31294,5.42622 -6.07432,9.95516 -6.1364,10.0643 -0.0621,0.10914 1.11455,0.19828 2.61473,0.19808 l 2.72759,-3.5e-4 z m 3.49756,-6.28385 c 0.21088,-0.32742 0.9486,-1.63711 1.63936,-2.91042 0.69076,-1.2733 1.34771,-2.3151 1.45988,-2.3151 0.18554,0 0.54151,3.32446 0.54537,5.09323 l 0.002,0.7276 h -2.0148 -2.01481 z M 7.17828,267.45043 c -5.63352,-0.97503 -14.39308,-2.7574 -14.85242,-3.02212 -0.1959,-0.1129 1.29496,-3.20936 4.28719,-8.90434 2.52315,-4.80218 4.59307,-8.91352 4.59982,-9.1363 0.007,-0.22278 -1.94779,-5.1584 -4.34344,-10.96806 -2.39564,-5.80966 -4.32857,-10.59016 -4.29538,-10.62335 0.0332,-0.0332 2.49927,0.35043 5.4802,0.85247 5.4257,0.91378 23.35962,3.51844 31.94743,4.63994 2.51193,0.32803 4.47646,0.67442 4.36562,0.76974 -0.11083,0.0953 -4.90449,1.92885 -10.65256,4.07451 -5.74808,2.14566 -10.59987,4.02435 -10.78177,4.17488 -0.25718,0.21281 -0.33073,3.47351 -0.33073,14.66107 0,7.91307 -0.0893,14.37935 -0.19844,14.36952 -0.10914,-0.01 -2.46062,-0.40942 -5.22552,-0.88796 z m 209.15313,-13.50282 v -14.41873 l -0.59531,-0.38364 c -0.32742,-0.211 -5.22947,-2.11939 -10.89345,-4.24086 -5.66398,-2.12148 -10.33928,-3.89838 -10.38956,-3.94866 -0.0503,-0.0503 1.48825,-0.29486 3.41897,-0.5435 7.41464,-0.95487 27.57248,-3.88239 32.861,-4.7724 3.04595,-0.5126 5.57773,-0.89237 5.62617,-0.84393 0.0484,0.0484 -1.87816,4.86482 -4.28133,10.70307 -2.40317,5.83825 -4.36759,10.7082 -4.36537,10.82209 0.002,0.1139 2.07934,4.19457 4.61583,9.06816 3.22995,6.20601 4.51452,8.91551 4.28714,9.04276 -0.44752,0.25044 -11.45066,2.44379 -15.65388,3.12041 -1.89177,0.30453 -3.70747,0.61225 -4.0349,0.68383 l -0.59531,0.13014 z M 36.15016,242.90966 c -7.71599,-0.9445 -17.4685,-2.53339 -17.45676,-2.84407 0.007,-0.17848 19.06196,-7.42807 19.52432,-7.42807 0.2314,0 0.31369,1.38804 0.31369,5.29166 0,2.91042 -0.0893,5.2763 -0.19844,5.25753 -0.10914,-0.0188 -1.09141,-0.14345 -2.18281,-0.27705 z"
       id="path1" /></g></svg>
