<?xml version="1.0" encoding="UTF-8" standalone="no"?>
<!-- Created with Inkscape (http://www.inkscape.org/) -->

<svg
   version="1.1"
   id="svg1"
   width="685.4267"
   height="256.01999"
   viewBox="0 0 685.4267 256.01999"
   sodipodi:docname="intuitive-logo-white-1060875-hi-res.svg"
   inkscape:version="1.4 (e7c3feb100, 2024-10-09)"
   xmlns:inkscape="http://www.inkscape.org/namespaces/inkscape"
   xmlns:sodipodi="http://sodipodi.sourceforge.net/DTD/sodipodi-0.dtd"
   xmlns="http://www.w3.org/2000/svg"
   xmlns:svg="http://www.w3.org/2000/svg">
  <defs
     id="defs1">
    <clipPath
       clipPathUnits="userSpaceOnUse"
       id="clipPath4">
      <path
         d="M 0,192.015 H 514.07 V 0 H 0 Z"
         transform="translate(-223.28581,-75.306804)"
         id="path4" />
    </clipPath>
    <clipPath
       clipPathUnits="userSpaceOnUse"
       id="clipPath6">
      <path
         d="M 0,192.015 H 514.07 V 0 H 0 Z"
         transform="translate(-280.76341,-114.1047)"
         id="path6" />
    </clipPath>
    <clipPath
       clipPathUnits="userSpaceOnUse"
       id="clipPath8">
      <path
         d="M 0,192.015 H 514.07 V 0 H 0 Z"
         id="path8" />
    </clipPath>
    <clipPath
       clipPathUnits="userSpaceOnUse"
       id="clipPath10">
      <path
         d="M 0,192.015 H 514.07 V 0 H 0 Z"
         transform="translate(-392.29661,-89.879102)"
         id="path10" />
    </clipPath>
    <clipPath
       clipPathUnits="userSpaceOnUse"
       id="clipPath12">
      <path
         d="M 0,192.015 H 514.07 V 0 H 0 Z"
         transform="translate(-457.27611,-114.1047)"
         id="path12" />
    </clipPath>
    <clipPath
       clipPathUnits="userSpaceOnUse"
       id="clipPath14">
      <path
         d="M 0,192.015 H 514.07 V 0 H 0 Z"
         id="path14" />
    </clipPath>
    <clipPath
       clipPathUnits="userSpaceOnUse"
       id="clipPath16">
      <path
         d="M 0,192.015 H 514.07 V 0 H 0 Z"
         transform="translate(-117.6223,-95.870305)"
         id="path16" />
    </clipPath>
    <clipPath
       clipPathUnits="userSpaceOnUse"
       id="clipPath18">
      <path
         d="M 0,192.015 H 514.07 V 0 H 0 Z"
         transform="translate(-256.67841,-141.6462)"
         id="path18" />
    </clipPath>
  </defs>
  <sodipodi:namedview
     id="namedview1"
     pagecolor="#ffffff"
     bordercolor="#000000"
     borderopacity="0.25"
     inkscape:showpageshadow="2"
     inkscape:pageopacity="0.0"
     inkscape:pagecheckerboard="0"
     inkscape:deskcolor="#d1d1d1"
     inkscape:zoom="2.56"
     inkscape:cx="153.32031"
     inkscape:cy="86.914063"
     inkscape:window-width="1892"
     inkscape:window-height="1017"
     inkscape:window-x="1212"
     inkscape:window-y="125"
     inkscape:window-maximized="1"
     inkscape:current-layer="layer-MC3">
    <inkscape:page
       x="0"
       y="0"
       inkscape:label="1"
       id="page1"
       width="685.4267"
       height="256.01999"
       margin="73.406403 75.725334 38.726665 74.833336"
       bleed="0" />
  </sodipodi:namedview>
  <g
     id="layer-MC0"
     inkscape:groupmode="layer"
     inkscape:label="Layer 1"
     style="display:none" />
  <g
     id="layer-MC1"
     inkscape:groupmode="layer"
     inkscape:label="Layer 4" />
  <g
     id="layer-MC2"
     inkscape:groupmode="layer"
     inkscape:label="Layer 1 copy">
    <path
       id="path1"
       d="m 56.125,56.095 h 7.096 v 64.255 h -7.096 z"
       style="fill:#ffffff;fill-opacity:1;fill-rule:nonzero;stroke:none"
       transform="matrix(1.3333333,0,0,-1.3333333,0,256.02)" />
    <path
       id="path2"
       d="m 0,0 h 14.291 v -58.01 h 7.096 V 0 H 35.678 V 6.245 H 0 Z"
       style="fill:#ffffff;fill-opacity:1;fill-rule:nonzero;stroke:none"
       transform="matrix(1.3333333,0,0,-1.3333333,188.21773,103.8804)" />
    <path
       id="path3"
       d="m 0,0 c 0,-8.234 -2.083,-14.1 -10.598,-14.1 -8.519,0 -10.506,7.001 -10.506,14.1 v 45.043 h -7.191 V -0.568 c 0,-11.733 4.448,-19.684 17.506,-19.684 13.532,0 17.792,8.423 17.792,20.156 v 45.139 l -7.003,0 z"
       style="fill:#ffffff;fill-opacity:1;fill-rule:nonzero;stroke:none"
       transform="matrix(1.3333333,0,0,-1.3333333,297.7144,155.61093)"
       clip-path="url(#clipPath4)" />
    <path
       id="path5"
       d="m 0,0 h 14.291 v -58.01 h 7.096 V 0 H 35.678 V 6.245 H 0 Z"
       style="fill:#ffffff;fill-opacity:1;fill-rule:nonzero;stroke:none"
       transform="matrix(1.3333333,0,0,-1.3333333,374.3512,103.8804)"
       clip-path="url(#clipPath6)" />
    <path
       id="path7"
       d="m 337.912,56.095 h 7.096 v 64.255 h -7.096 z"
       style="fill:#ffffff;fill-opacity:1;fill-rule:nonzero;stroke:none"
       transform="matrix(1.3333333,0,0,-1.3333333,0,256.02)"
       clip-path="url(#clipPath8)" />
    <path
       id="path9"
       d="M 0,0 C -2.175,-9.083 -5.298,-20.82 -6.057,-26.306 H -6.245 C -7.096,-20.157 -9.556,-8.991 -11.638,0 l -7.099,30.471 h -7.569 l 15.899,-64.255 h 8.516 L 14.67,30.471 H 7.383 Z"
       style="fill:#ffffff;fill-opacity:1;fill-rule:nonzero;stroke:none"
       transform="matrix(1.3333333,0,0,-1.3333333,523.06213,136.1812)"
       clip-path="url(#clipPath10)" />
    <path
       id="path11"
       d="M 0,0 V 6.245 H -29.955 V -58.01 H 0 v 6.247 h -22.951 v 24.606 h 21.378 v 6.245 H -22.951 V 0 Z"
       style="fill:#ffffff;fill-opacity:1;fill-rule:nonzero;stroke:none"
       transform="matrix(1.3333333,0,0,-1.3333333,609.70147,103.8804)"
       clip-path="url(#clipPath12)" />
    <path
       id="path13"
       d="m 253.13,56.095 h 7.097 v 64.255 h -7.097 z"
       style="fill:#ffffff;fill-opacity:1;fill-rule:nonzero;stroke:none"
       transform="matrix(1.3333333,0,0,-1.3333333,0,256.02)"
       clip-path="url(#clipPath14)" />
    <path
       id="path15"
       d="M 0,0 C 0,-10.503 0.096,-20.154 0.568,-28.768 H 0.475 c -0.124,0.4 -0.309,0.876 -0.583,1.525 C -6.083,-11.568 -21.73,24.51 -21.73,24.51 h -8.707 v -64.255 h 6.624 v 25.077 c 0,11.545 -0.095,22.051 -0.567,30.094 h 0.083 c 0.023,-0.063 0.049,-0.133 0.076,-0.204 0.132,-0.401 0.327,-0.899 0.622,-1.599 4.283,-10.847 21.896,-53.368 21.896,-53.368 H 6.624 V 24.51 L 0,24.51 Z"
       style="fill:#ffffff;fill-opacity:1;fill-rule:nonzero;stroke:none"
       transform="matrix(1.3333333,0,0,-1.3333333,156.82973,128.19293)"
       clip-path="url(#clipPath16)" />
    <path
       id="path17"
       d="m 0,0 c -4.011,0 -7.274,3.263 -7.274,7.273 0,4.012 3.263,7.275 7.274,7.275 4.011,0 7.275,-3.263 7.275,-7.275 C 7.275,3.263 4.011,0 0,0 m 0,21.324 c -7.748,0 -14.05,-6.303 -14.05,-14.051 0,-7.746 6.302,-14.049 14.05,-14.049 7.748,0 14.05,6.303 14.05,14.049 0,7.748 -6.302,14.051 -14.05,14.051"
       style="fill:#ffffff;fill-opacity:1;fill-rule:nonzero;stroke:none"
       transform="matrix(1.3333333,0,0,-1.3333333,342.23787,67.1584)"
       clip-path="url(#clipPath18)" />
  </g>
  <g
     id="layer-MC3"
     inkscape:groupmode="layer"
     inkscape:label="Layer 2" />
</svg>
